<svg version="1.1" xmlns="http://www.w3.org/2000/svg" viewBox="0 0 974.2299779182678 760.9321535142963" width="974.2299779182678" height="760.9321535142963">
  <!-- svg-source:excalidraw -->
  
  <defs>
    <style class="style-fonts">
      @font-face {
        font-family: "Virgil";
        src: url("https://excalidraw.com/Virgil.woff2");
      }
      @font-face {
        font-family: "Cascadia";
        src: url("https://excalidraw.com/Cascadia.woff2");
      }
      @font-face {
        font-family: "Assistant";
        src: url("https://excalidraw.com/Assistant-Regular.woff2");
      }
    </style>
    
  </defs>
  <g stroke-linecap="round"><g transform="translate(230.70938465544953 327.6853928573695) rotate(0 121 68.5)"><path d="M-0.39 -1.11 C39.81 21.43, 201.02 113.31, 241.22 136.15" stroke="#1971c2" stroke-width="2.5" fill="none" stroke-dasharray="8 10"></path></g></g><mask></mask><g stroke-linecap="round"><g transform="translate(17.709384655449526 328.6853928573695) rotate(0 465.5 0)"><path d="M-0.93 -0.3 C154.41 -0.54, 776.26 -0.13, 931.7 -0.24" stroke="#1e1e1e" stroke-width="2.5" fill="none" stroke-dasharray="1.5 8"></path></g></g><mask></mask><g stroke-linecap="round"><g transform="translate(472.7093846554495 235.68539285736952) rotate(0 0 257)"><path d="M0.78 -0.58 C1 84.91, 0.17 428.11, 0.23 513.81 M-0.27 1.73 C-0.09 87.33, -0.81 429.74, -0.59 515.25" stroke="#1e1e1e" stroke-width="2" fill="none"></path></g></g><mask></mask><g stroke-linecap="round"><g transform="translate(17.709384655449526 684.6853928573695) rotate(0 455 0)"><path d="M0.54 -0.7 C152.28 -0.92, 759.07 -0.69, 910.52 -0.42 M-0.64 1.55 C150.98 1.42, 757.78 1.31, 909.85 0.89" stroke="#1e1e1e" stroke-width="2" fill="none"></path></g></g><mask></mask><g transform="translate(221.16873810957384 169.26376321486978) rotate(211.05236731746288 303.7682053088289 -19.532934976016918)" stroke="none"><path fill="#1e1e1e" d="M -2.22,326.19 Q -2.22,326.19 -2.69,319.65 -3.17,313.12 -3.36,290.64 -3.54,268.16 -3.60,225.45 -3.67,182.73 -1.51,121.53 0.65,60.34 9.75,-4.96 18.85,-70.28 36.38,-125.41 53.91,-180.55 80.00,-221.62 106.09,-262.69 140.27,-290.12 174.45,-317.55 213.15,-331.99 251.86,-346.43 292.43,-350.38 333.01,-354.33 371.08,-349.43 409.16,-344.54 441.25,-333.70 473.34,-322.86 497.86,-312.25 522.37,-301.64 540.40,-293.32 558.42,-285.01 569.96,-278.72 581.50,-272.43 588.53,-268.69 595.56,-264.95 599.06,-263.47 602.55,-262.00 604.87,-260.91 607.18,-259.82 608.80,-259.10 610.42,-258.37 610.88,-257.99 611.33,-257.60 611.64,-257.09 611.95,-256.58 612.09,-256.00 612.22,-255.42 612.15,-254.82 612.09,-254.23 611.84,-253.69 611.60,-253.14 611.19,-252.71 610.78,-252.27 610.25,-251.99 609.72,-251.71 609.14,-251.61 608.55,-251.51 607.96,-251.61 607.37,-251.70 606.84,-251.98 606.31,-252.25 605.90,-252.69 605.48,-253.12 605.23,-253.66 604.98,-254.20 604.91,-254.79 604.84,-255.39 604.97,-255.97 605.10,-256.55 605.40,-257.07 605.71,-257.58 606.16,-257.97 606.62,-258.36 607.17,-258.58 607.72,-258.80 608.32,-258.84 608.92,-258.87 609.49,-258.72 610.07,-258.56 610.56,-258.23 611.06,-257.89 611.42,-257.42 611.79,-256.95 611.98,-256.38 612.17,-255.81 612.17,-255.22 612.18,-254.62 611.99,-254.05 611.80,-253.49 611.44,-253.01 611.08,-252.53 610.59,-252.20 610.09,-251.86 609.52,-251.70 608.95,-251.53 608.35,-251.56 607.75,-251.59 607.20,-251.81 606.64,-252.03 606.64,-252.03 606.64,-252.03 605.23,-253.11 603.83,-254.19 602.04,-255.55 600.26,-256.90 596.68,-258.60 593.10,-260.31 586.04,-264.06 578.98,-267.81 567.60,-274.02 556.22,-280.23 538.25,-288.52 520.28,-296.80 495.96,-307.33 471.65,-317.86 440.05,-328.59 408.46,-339.31 370.97,-344.18 333.48,-349.06 293.57,-345.25 253.66,-341.44 215.68,-327.39 177.70,-313.34 144.13,-286.54 110.55,-259.74 84.79,-219.31 59.04,-178.87 41.64,-124.19 24.25,-69.51 15.21,-4.48 6.17,60.53 4.07,121.63 1.96,182.72 2.09,225.41 2.23,268.10 2.50,290.36 2.78,312.62 3.39,319.14 4.00,325.67 3.99,326.05 3.97,326.42 3.87,326.78 3.77,327.15 3.58,327.47 3.39,327.80 3.13,328.07 2.87,328.34 2.55,328.55 2.23,328.75 1.88,328.87 1.52,328.99 1.15,329.02 0.77,329.05 0.40,328.99 0.03,328.93 -0.31,328.79 -0.66,328.64 -0.96,328.41 -1.26,328.19 -1.50,327.90 -1.74,327.61 -1.90,327.27 -2.06,326.93 -2.14,326.56 -2.22,326.19 -2.22,326.19 L -2.22,326.19 Z"></path></g><g stroke-linecap="round"><g transform="translate(139.70938465544953 212.68539285736952) rotate(0 168.5 216.5)"><path d="M0.74 0.08 C56.74 72.29, 279.79 360.09, 335.85 432.26" stroke="#2f9e44" stroke-width="2.5" fill="none" stroke-dasharray="8 10"></path></g></g><mask></mask><g transform="translate(231.70938465544953 327.6853928573695) rotate(0 0.00004999999998744897 0.00005000000000165983)" stroke="none"><path fill="#e03131" d="M 6.28,-6.28 Q 6.28,-6.28 7.11,-5.11 7.95,-3.94 8.37,-2.57 8.80,-1.19 8.76,0.23 8.72,1.67 8.22,3.02 7.73,4.37 6.83,5.49 5.93,6.61 4.72,7.38 3.50,8.15 2.11,8.50 0.72,8.85 -0.71,8.73 -2.14,8.61 -3.46,8.05 -4.78,7.48 -5.85,6.52 -6.92,5.56 -7.63,4.31 -8.33,3.06 -8.60,1.65 -8.87,0.23 -8.68,-1.18 -8.49,-2.60 -7.85,-3.89 -7.21,-5.18 -6.19,-6.19 -5.18,-7.21 -3.89,-7.85 -2.60,-8.49 -1.18,-8.68 0.24,-8.87 1.65,-8.60 3.06,-8.33 4.31,-7.62 5.56,-6.92 6.52,-5.85 7.48,-4.78 8.05,-3.46 8.62,-2.14 8.73,-0.70 8.85,0.72 8.50,2.11 8.15,3.51 7.38,4.72 6.61,5.93 5.49,6.83 4.36,7.73 3.02,8.22 1.67,8.72 0.23,8.76 -1.20,8.80 -2.57,8.37 -3.94,7.95 -5.11,7.11 -6.28,6.27 -6.28,6.28 -6.28,6.28 -6.94,5.43 -7.60,4.59 -8.04,3.61 -8.48,2.64 -8.67,1.58 -8.86,0.53 -8.80,-0.53 -8.73,-1.60 -8.41,-2.62 -8.09,-3.64 -7.54,-4.56 -6.99,-5.47 -6.23,-6.23 -5.47,-6.99 -4.56,-7.54 -3.64,-8.10 -2.62,-8.41 -1.60,-8.73 -0.53,-8.80 0.53,-8.86 1.59,-8.67 2.64,-8.48 3.61,-8.04 4.59,-7.60 5.43,-6.94 6.28,-6.28 6.28,-6.28 L 6.28,-6.28 Z"></path></g><g stroke-linecap="round"><g transform="translate(231.70938465544953 327.6853928573695) rotate(0 0 177.84101697924058)"><path d="M-0.41 -1.09 C-0.62 58.1, -0.8 296.76, -0.59 356.23" stroke="#e03131" stroke-width="2.5" fill="none" stroke-dasharray="8 10"></path></g></g><mask></mask><g transform="translate(473.7093846554495 464.6853928573695) rotate(0 0.00004999999998744897 0.00004999999998744897)" stroke="none"><path fill="#1971c2" d="M 6.28,-6.28 Q 6.28,-6.28 7.11,-5.11 7.95,-3.94 8.37,-2.57 8.80,-1.19 8.76,0.23 8.72,1.67 8.22,3.02 7.73,4.37 6.83,5.49 5.93,6.61 4.72,7.38 3.50,8.15 2.11,8.50 0.72,8.85 -0.71,8.73 -2.14,8.61 -3.46,8.05 -4.78,7.48 -5.85,6.52 -6.92,5.56 -7.63,4.31 -8.33,3.06 -8.60,1.65 -8.87,0.23 -8.68,-1.18 -8.49,-2.60 -7.85,-3.89 -7.21,-5.18 -6.19,-6.19 -5.18,-7.21 -3.89,-7.85 -2.60,-8.49 -1.18,-8.68 0.24,-8.87 1.65,-8.60 3.06,-8.33 4.31,-7.62 5.56,-6.92 6.52,-5.85 7.48,-4.78 8.05,-3.46 8.62,-2.14 8.73,-0.70 8.85,0.72 8.50,2.11 8.15,3.51 7.38,4.72 6.61,5.93 5.49,6.83 4.36,7.73 3.02,8.22 1.67,8.72 0.23,8.76 -1.20,8.80 -2.57,8.37 -3.94,7.95 -5.11,7.11 -6.28,6.27 -6.28,6.28 -6.28,6.28 -6.94,5.43 -7.60,4.59 -8.04,3.61 -8.48,2.64 -8.67,1.58 -8.86,0.53 -8.80,-0.53 -8.73,-1.60 -8.41,-2.62 -8.09,-3.64 -7.54,-4.56 -6.99,-5.47 -6.23,-6.23 -5.47,-6.99 -4.56,-7.54 -3.64,-8.10 -2.62,-8.41 -1.60,-8.73 -0.53,-8.80 0.53,-8.86 1.59,-8.67 2.64,-8.48 3.61,-8.04 4.59,-7.60 5.43,-6.94 6.28,-6.28 6.28,-6.28 L 6.28,-6.28 Z"></path></g><g stroke-linecap="round"><g transform="translate(9.709384655449526 229.68539285736952) rotate(0 232.5 104.5)"><path d="M1.15 0.37 C78.83 35.02, 388.4 173.3, 465.55 208.05 M0.29 -0.49 C77.92 34.28, 387.2 173.99, 464.89 209.09" stroke="#2f9e44" stroke-width="2" fill="none"></path></g></g><mask></mask><g transform="translate(473.2487659894224 436.588288533032) rotate(0 0.00004999999998744897 0.00004999999998744897)" stroke="none"><path fill="#2f9e44" d="M 6.28,-6.28 Q 6.28,-6.28 7.11,-5.11 7.95,-3.94 8.37,-2.57 8.80,-1.19 8.76,0.23 8.72,1.67 8.22,3.02 7.73,4.37 6.83,5.49 5.93,6.61 4.72,7.38 3.50,8.15 2.11,8.50 0.72,8.85 -0.71,8.73 -2.14,8.61 -3.46,8.05 -4.78,7.48 -5.85,6.52 -6.92,5.56 -7.63,4.31 -8.33,3.06 -8.60,1.65 -8.87,0.23 -8.68,-1.18 -8.49,-2.60 -7.85,-3.89 -7.21,-5.18 -6.19,-6.19 -5.18,-7.21 -3.89,-7.85 -2.60,-8.49 -1.18,-8.68 0.24,-8.87 1.65,-8.60 3.06,-8.33 4.31,-7.62 5.56,-6.92 6.52,-5.85 7.48,-4.78 8.05,-3.46 8.62,-2.14 8.73,-0.70 8.85,0.72 8.50,2.11 8.15,3.51 7.38,4.72 6.61,5.93 5.49,6.83 4.36,7.73 3.02,8.22 1.67,8.72 0.23,8.76 -1.20,8.80 -2.57,8.37 -3.94,7.95 -5.11,7.11 -6.28,6.27 -6.28,6.28 -6.28,6.28 -6.94,5.43 -7.60,4.59 -8.04,3.61 -8.48,2.64 -8.67,1.58 -8.86,0.53 -8.80,-0.53 -8.73,-1.60 -8.41,-2.62 -8.09,-3.64 -7.54,-4.56 -6.99,-5.47 -6.23,-6.23 -5.47,-6.99 -4.56,-7.54 -3.64,-8.10 -2.62,-8.41 -1.60,-8.73 -0.53,-8.80 0.53,-8.86 1.59,-8.67 2.64,-8.48 3.61,-8.04 4.59,-7.60 5.43,-6.94 6.28,-6.28 6.28,-6.28 L 6.28,-6.28 Z"></path></g><g transform="translate(474.5684405256942 329.6946510950197) rotate(0 16.825850337464885 51.79722554866646)" stroke="none"><path fill="#1e1e1e" d="M 0,-2.60 Q 0,-2.60 1.32,-2.60 2.65,-2.60 3.83,-2.61 5.01,-2.63 6.37,-2.18 7.74,-1.72 9.65,-0.39 11.55,0.93 12.48,2.10 13.41,3.27 14.06,4.19 14.72,5.12 15.26,6.22 15.81,7.33 16.56,8.76 17.31,10.18 18.01,11.51 18.72,12.83 19.35,14.51 19.99,16.19 20.13,17.97 20.27,19.76 20.32,21.23 20.36,22.70 20.29,25.08 20.22,27.45 20.48,29.36 20.75,31.26 20.96,32.49 21.18,33.71 21.60,35.00 22.02,36.29 22.97,37.95 23.92,39.60 25.00,40.58 26.08,41.56 27.32,42.51 28.56,43.47 29.73,44.09 30.91,44.72 32.56,45.48 34.21,46.24 34.61,46.37 35.00,46.49 35.31,46.76 35.62,47.03 35.85,47.37 36.09,47.70 36.23,48.08 36.38,48.47 36.43,48.87 36.48,49.28 36.44,49.68 36.39,50.09 36.25,50.47 36.10,50.85 35.87,51.19 35.64,51.53 35.34,51.80 35.03,52.08 34.67,52.27 34.31,52.46 33.92,52.56 33.52,52.66 33.11,52.66 32.70,52.66 32.31,52.57 31.91,52.47 31.55,52.29 31.18,52.10 33.05,51.93 34.91,51.77 33.96,52.29 33.00,52.82 31.32,52.84 29.64,52.86 27.81,52.83 25.98,52.79 24.83,53.87 23.69,54.96 23.15,56.09 22.60,57.21 21.99,58.81 21.37,60.40 21.00,62.20 20.63,64.00 20.31,65.05 19.98,66.09 19.61,67.89 19.24,69.68 19.18,71.34 19.11,73.00 19.11,74.55 19.11,76.11 19.10,77.94 19.09,79.76 19.08,81.52 19.08,83.28 19.10,84.68 19.12,86.08 19.13,87.42 19.15,88.75 19.16,90.07 19.18,91.40 18.94,93.18 18.69,94.97 18.34,96.25 17.98,97.53 17.34,99.14 16.70,100.75 15.85,101.97 15.00,103.18 13.77,104.51 12.53,105.83 11.04,106.42 9.54,107.01 8.33,107.08 7.12,107.14 4.01,106.60 0.91,106.07 0.45,105.71 0.00,105.35 -0.31,104.87 -0.63,104.38 -0.78,103.82 -0.92,103.26 -0.88,102.68 -0.84,102.10 -0.62,101.57 -0.39,101.04 -0.01,100.60 0.36,100.16 0.86,99.87 1.36,99.58 1.93,99.47 2.50,99.35 3.07,99.42 3.65,99.49 4.17,99.75 4.69,100.00 5.11,100.40 5.52,100.81 5.78,101.32 6.05,101.84 6.13,102.41 6.22,102.99 6.11,103.56 6.01,104.13 5.73,104.63 5.45,105.14 5.02,105.53 4.60,105.93 4.07,106.16 3.54,106.40 2.96,106.45 2.38,106.50 1.82,106.37 1.26,106.23 0.76,105.93 0.27,105.62 -0.09,105.17 -0.45,104.73 -0.66,104.18 -0.86,103.64 -0.89,103.06 -0.91,102.49 -0.75,101.93 -0.58,101.37 -0.25,100.90 0.07,100.43 0.54,100.08 1.01,99.74 1.56,99.56 2.11,99.39 2.69,99.40 3.27,99.41 3.82,99.60 4.36,99.79 4.36,99.79 4.36,99.79 6.01,99.91 7.65,100.03 8.67,99.46 9.70,98.89 10.37,97.87 11.05,96.84 11.38,95.78 11.71,94.72 12.10,93.06 12.48,91.40 12.50,90.07 12.51,88.75 12.53,87.42 12.55,86.08 12.56,84.68 12.58,83.28 12.58,81.52 12.58,79.76 12.57,77.92 12.56,76.08 12.58,74.45 12.60,72.81 12.70,71.28 12.81,69.74 13.17,68.24 13.53,66.75 13.70,65.51 13.88,64.27 14.35,62.52 14.83,60.77 15.05,59.49 15.26,58.21 15.62,57.20 15.97,56.19 16.82,54.37 17.66,52.55 18.45,51.34 19.23,50.12 20.03,49.40 20.83,48.68 21.81,47.97 22.80,47.25 25.28,46.68 27.76,46.12 29.45,46.58 31.15,47.04 33.08,46.77 35.00,46.49 35.31,46.76 35.62,47.03 35.85,47.37 36.09,47.70 36.23,48.08 36.38,48.47 36.43,48.87 36.48,49.28 36.44,49.68 36.39,50.09 36.25,50.47 36.10,50.85 35.87,51.19 35.64,51.53 35.34,51.80 35.04,52.08 34.67,52.27 34.31,52.46 33.92,52.56 33.52,52.66 33.11,52.66 32.70,52.66 32.31,52.57 31.91,52.47 31.55,52.29 31.18,52.10 30.65,51.81 30.12,51.51 28.98,51.05 27.84,50.58 26.39,49.77 24.94,48.95 23.60,47.93 22.27,46.90 20.82,45.58 19.36,44.26 18.71,43.28 18.05,42.29 17.19,40.65 16.33,39.01 15.75,37.21 15.16,35.41 14.92,34.34 14.67,33.27 14.59,31.66 14.52,30.06 14.30,28.77 14.08,27.47 14.01,25.97 13.93,24.46 13.94,22.92 13.95,21.38 13.94,19.91 13.93,18.44 13.60,16.99 13.28,15.54 12.64,14.16 12.01,12.79 11.32,11.26 10.63,9.73 9.86,8.25 9.09,6.77 7.99,5.36 6.89,3.94 5.86,3.28 4.83,2.63 3.74,2.61 2.65,2.60 1.32,2.60 0,2.60 -0.31,2.56 -0.62,2.52 -0.91,2.41 -1.20,2.30 -1.46,2.12 -1.72,1.94 -1.93,1.71 -2.14,1.47 -2.28,1.19 -2.43,0.92 -2.50,0.61 -2.58,0.31 -2.58,-0.00 -2.58,-0.31 -2.50,-0.61 -2.43,-0.92 -2.28,-1.20 -2.14,-1.47 -1.93,-1.71 -1.72,-1.94 -1.46,-2.12 -1.20,-2.30 -0.91,-2.41 -0.62,-2.52 -0.31,-2.56 0.00,-2.60 0.00,-2.60 L 0,-2.60 Z"></path></g><g transform="translate(473.2487659894224 643.7771907276979) rotate(0 48.827957842055014 -158.0310257185429)" stroke="none"><path fill="#1e1e1e" d="M 0,-1.59 Q 0,-1.59 3.22,-1.55 6.44,-1.51 9.71,-1.48 12.98,-1.46 16.27,-1.44 19.55,-1.42 22.28,-1.40 25.00,-1.39 27.22,-1.56 29.45,-1.73 30.94,-2.54 32.43,-3.35 34.00,-4.56 35.57,-5.77 37.15,-7.56 38.73,-9.34 40.38,-11.27 42.04,-13.19 43.69,-15.14 45.35,-17.10 46.77,-19.20 48.19,-21.30 49.34,-23.66 50.49,-26.01 51.54,-28.70 52.60,-31.39 53.21,-34.35 53.83,-37.31 54.09,-40.43 54.36,-43.55 54.47,-46.96 54.59,-50.37 54.45,-54.07 54.31,-57.76 54.06,-61.61 53.82,-65.46 53.71,-69.59 53.60,-73.73 53.56,-77.76 53.51,-81.79 53.49,-85.78 53.48,-89.77 53.47,-93.18 53.46,-96.58 53.46,-99.35 53.45,-102.13 53.84,-104.55 54.23,-106.98 54.98,-109.38 55.73,-111.79 57.05,-114.05 58.37,-116.30 60.07,-118.76 61.77,-121.22 63.66,-123.44 65.55,-125.65 67.13,-127.19 68.72,-128.73 70.17,-129.86 71.61,-131.00 73.22,-131.92 74.84,-132.83 76.77,-133.44 78.70,-134.05 80.36,-134.67 82.02,-135.29 83.97,-135.76 85.93,-136.23 87.77,-136.47 89.61,-136.71 90.95,-136.88 92.30,-137.05 93.45,-137.16 94.60,-137.28 95.76,-137.42 96.91,-137.57 96.93,-137.58 96.94,-137.58 97.22,-137.55 97.50,-137.52 97.76,-137.43 98.03,-137.33 98.26,-137.17 98.49,-137.02 98.68,-136.81 98.87,-136.60 99.00,-136.36 99.14,-136.11 99.21,-135.84 99.28,-135.57 99.28,-135.29 99.29,-135.01 99.22,-134.73 99.16,-134.46 99.03,-134.21 98.90,-133.96 98.72,-133.75 98.54,-133.54 98.31,-133.38 98.08,-133.21 97.82,-133.11 97.56,-133.01 97.28,-132.97 97.00,-132.93 95.42,-132.78 93.83,-132.63 92.18,-132.80 90.53,-132.97 89.41,-133.52 88.29,-134.08 87.14,-134.99 86.00,-135.90 84.66,-137.33 83.33,-138.75 82.15,-140.18 80.98,-141.61 79.90,-143.26 78.83,-144.91 77.96,-146.64 77.10,-148.38 76.37,-149.83 75.64,-151.27 75.06,-152.76 74.49,-154.24 74.18,-155.56 73.87,-156.89 73.73,-158.26 73.59,-159.64 73.51,-160.78 73.43,-161.92 73.39,-163.17 73.35,-164.43 73.31,-165.53 73.28,-166.63 73.28,-168.04 73.29,-169.46 73.65,-171.68 74.00,-173.90 74.40,-176.51 74.79,-179.12 75.19,-181.93 75.59,-184.74 75.98,-187.46 76.37,-190.17 76.55,-192.78 76.73,-195.40 76.82,-198.03 76.92,-200.66 76.97,-203.67 77.02,-206.68 77.05,-209.86 77.08,-213.04 77.10,-216.48 77.12,-219.92 77.13,-223.28 77.14,-226.63 77.15,-230.15 77.16,-233.66 76.79,-237.17 76.42,-240.68 75.70,-244.62 74.98,-248.56 74.29,-252.92 73.60,-257.29 72.75,-261.77 71.89,-266.26 71.15,-270.07 70.40,-273.88 69.53,-276.76 68.66,-279.65 67.73,-282.19 66.80,-284.73 65.68,-286.89 64.56,-289.04 62.84,-290.79 61.13,-292.54 58.74,-294.22 56.35,-295.89 54.03,-297.17 51.71,-298.45 49.40,-299.56 47.09,-300.67 45.17,-301.52 43.25,-302.37 41.76,-303.05 40.28,-303.73 39.13,-304.11 37.97,-304.49 36.59,-304.87 35.20,-305.24 33.63,-305.40 32.06,-305.56 30.14,-305.77 28.22,-305.98 26.64,-306.51 25.07,-307.05 23.76,-307.42 22.44,-307.80 20.47,-308.69 18.51,-309.59 17.03,-310.31 15.54,-311.04 14.44,-311.46 13.34,-311.87 12.31,-312.21 11.28,-312.54 8.26,-313.50 5.25,-314.45 5.04,-314.81 4.84,-315.17 4.76,-315.58 4.68,-315.99 4.74,-316.40 4.80,-316.81 4.98,-317.19 5.17,-317.56 5.46,-317.85 5.76,-318.15 6.13,-318.33 6.50,-318.51 6.91,-318.57 7.33,-318.63 7.73,-318.55 8.14,-318.47 8.50,-318.26 8.87,-318.06 9.14,-317.75 9.42,-317.44 9.58,-317.06 9.75,-316.67 9.78,-316.26 9.81,-315.85 9.71,-315.44 9.61,-315.04 9.39,-314.69 9.16,-314.34 8.84,-314.08 8.51,-313.82 8.12,-313.68 7.73,-313.53 7.32,-313.52 6.90,-313.51 6.51,-313.63 6.11,-313.76 5.77,-314.00 5.43,-314.24 5.19,-314.58 4.95,-314.92 4.83,-315.32 4.71,-315.71 4.72,-316.13 4.73,-316.54 4.87,-316.93 5.02,-317.32 5.28,-317.65 5.54,-317.97 5.89,-318.20 6.24,-318.42 6.64,-318.52 7.05,-318.62 7.46,-318.58 7.88,-318.55 8.26,-318.38 8.64,-318.22 8.95,-317.94 9.26,-317.66 9.26,-317.66 9.26,-317.66 11.11,-317.37 12.96,-317.08 14.05,-316.63 15.14,-316.17 16.35,-315.62 17.56,-315.06 18.84,-314.41 20.12,-313.75 21.97,-313.18 23.82,-312.60 25.24,-312.19 26.65,-311.78 28.95,-311.11 31.25,-310.45 32.33,-310.26 33.41,-310.06 34.90,-309.64 36.39,-309.21 37.87,-308.43 39.35,-307.65 40.53,-307.02 41.70,-306.39 43.00,-305.58 44.31,-304.77 46.27,-303.90 48.23,-303.04 50.61,-301.89 52.98,-300.75 55.42,-299.39 57.87,-298.04 60.44,-296.20 63.02,-294.37 64.95,-292.32 66.87,-290.28 68.07,-287.96 69.27,-285.64 70.23,-283.03 71.19,-280.41 72.09,-277.40 73.00,-274.39 73.74,-270.57 74.49,-266.76 75.36,-262.23 76.23,-257.71 76.92,-253.37 77.61,-249.04 78.35,-245.00 79.09,-240.96 79.48,-237.31 79.87,-233.66 79.87,-230.15 79.88,-226.63 79.89,-223.27 79.90,-219.91 79.91,-216.47 79.92,-213.03 79.93,-209.85 79.94,-206.66 79.94,-203.63 79.94,-200.59 79.92,-197.91 79.90,-195.24 79.81,-192.51 79.72,-189.78 79.47,-187.06 79.22,-184.35 79.01,-181.53 78.80,-178.71 78.66,-176.10 78.51,-173.50 78.49,-171.49 78.47,-169.47 78.48,-168.06 78.50,-166.66 78.47,-165.58 78.45,-164.50 78.44,-162.24 78.43,-159.99 78.59,-157.89 78.74,-155.79 79.17,-154.54 79.60,-153.29 80.33,-151.87 81.06,-150.44 81.85,-149.01 82.64,-147.57 83.67,-146.22 84.70,-144.87 85.81,-143.70 86.91,-142.53 88.97,-140.79 91.03,-139.04 92.43,-138.47 93.83,-137.90 95.39,-137.74 96.94,-137.58 97.22,-137.55 97.50,-137.52 97.76,-137.43 98.03,-137.33 98.26,-137.17 98.49,-137.02 98.68,-136.81 98.87,-136.60 99.00,-136.36 99.14,-136.11 99.21,-135.84 99.28,-135.57 99.28,-135.29 99.29,-135.01 99.22,-134.73 99.16,-134.46 99.03,-134.21 98.90,-133.96 98.72,-133.75 98.54,-133.54 98.31,-133.38 98.08,-133.21 97.82,-133.11 97.56,-133.01 97.28,-132.97 97.00,-132.93 97.00,-132.93 96.99,-132.93 95.86,-133.04 94.73,-133.14 93.63,-133.19 92.53,-133.24 91.26,-133.24 89.99,-133.25 88.35,-133.11 86.70,-132.97 84.92,-132.55 83.14,-132.12 81.38,-131.53 79.62,-130.94 77.96,-130.48 76.29,-130.02 74.80,-129.32 73.32,-128.61 71.93,-127.72 70.54,-126.83 69.04,-125.39 67.54,-123.95 65.73,-121.83 63.93,-119.72 62.28,-117.34 60.63,-114.96 59.43,-112.97 58.23,-110.99 57.53,-108.77 56.82,-106.55 56.45,-104.34 56.08,-102.13 56.08,-99.36 56.09,-96.58 56.10,-93.18 56.10,-89.79 56.12,-85.80 56.14,-81.82 56.19,-77.81 56.23,-73.79 56.34,-69.71 56.44,-65.63 56.69,-61.74 56.94,-57.86 57.09,-54.07 57.23,-50.28 57.11,-46.80 56.99,-43.32 56.71,-40.04 56.42,-36.77 55.74,-33.60 55.07,-30.43 53.97,-27.64 52.88,-24.84 51.65,-22.32 50.41,-19.80 48.91,-17.58 47.41,-15.36 45.76,-13.39 44.11,-11.42 42.46,-9.47 40.80,-7.51 39.05,-5.53 37.30,-3.55 35.50,-2.16 33.70,-0.76 31.72,0.10 29.74,0.97 27.37,1.18 25.00,1.39 22.28,1.40 19.55,1.42 16.27,1.44 12.98,1.46 9.71,1.48 6.44,1.51 3.22,1.55 0,1.59 -0.19,1.57 -0.38,1.54 -0.56,1.47 -0.74,1.41 -0.89,1.30 -1.05,1.19 -1.18,1.04 -1.31,0.90 -1.40,0.73 -1.49,0.56 -1.53,0.37 -1.58,0.19 -1.58,-0.00 -1.58,-0.19 -1.53,-0.37 -1.48,-0.56 -1.40,-0.73 -1.31,-0.90 -1.18,-1.04 -1.05,-1.19 -0.89,-1.30 -0.74,-1.41 -0.56,-1.47 -0.38,-1.54 -0.19,-1.57 0.00,-1.59 0.00,-1.59 L 0,-1.59 Z"></path></g><g transform="translate(520.0972120270699 368.6250499150366) rotate(0 73.86666870117193 10)"><text x="0" y="14.016" font-family="Virgil, Segoe UI Emoji" font-size="16px" fill="#1e1e1e" text-anchor="start" style="white-space: pre;" direction="ltr" dominant-baseline="alphabetic">gamma sigma nabla</text></g><g transform="translate(583.4415897681141 497.9531544696688) rotate(0 45.06666564941406 10)"><text x="0" y="14.016" font-family="Virgil, Segoe UI Emoji" font-size="16px" fill="#1e1e1e" text-anchor="start" style="white-space: pre;" direction="ltr" dominant-baseline="alphabetic">sigma nabla</text></g></svg>