<?xml version="1.0" encoding="UTF-8" standalone="no"?>
<!-- Uploaded to: SVG Repo, www.svgrepo.com, Generator: SVG Repo Mixer Tools -->

<svg
   id="_x32_"
   width="800px"
   height="800px"
   version="1.1"
   viewBox="0 0 512 512"
   xml:space="preserve"
   sodipodi:docname="sparkle.svg"
   inkscape:version="1.3.2 (091e20e, 2023-11-25)"
   xmlns:inkscape="http://www.inkscape.org/namespaces/inkscape"
   xmlns:sodipodi="http://sodipodi.sourceforge.net/DTD/sodipodi-0.dtd"
   xmlns="http://www.w3.org/2000/svg"
   xmlns:svg="http://www.w3.org/2000/svg"><defs
   id="defs3" /><sodipodi:namedview
   id="namedview3"
   pagecolor="#ffffff"
   bordercolor="#666666"
   borderopacity="1.0"
   inkscape:showpageshadow="2"
   inkscape:pageopacity="0.0"
   inkscape:pagecheckerboard="0"
   inkscape:deskcolor="#d1d1d1"
   inkscape:zoom="0.3668767"
   inkscape:cx="350.25391"
   inkscape:cy="487.90234"
   inkscape:window-width="1624"
   inkscape:window-height="841"
   inkscape:window-x="0"
   inkscape:window-y="0"
   inkscape:window-maximized="0"
   inkscape:current-layer="g3" />
<style
   type="text/css"
   id="style1">
	.st0{fill:#000000;}
</style>
<g
   id="g3">
	<path
   class="st0"
   transform="translate(10.72 6.0469)"
   d="m197.46-6.0469a6.0472 6.0472 0 0 0-5.9141 4.7812c-8.268 38.637-24.74 80.384-48.262 103.91-23.514 23.506-65.266 39.994-103.89 48.266a6.0472 6.0472 0 0 0 2e-3 11.828c38.635 8.2549 80.378 24.734 103.89 48.258 23.514 23.514 40.002 65.261 48.27 103.89a6.0472 6.0472 0 0 0 11.828-2e-3c8.2548-38.635 24.738-80.382 48.248-103.9 23.513-23.513 65.266-39.994 103.89-48.266a6.0472 6.0472 0 0 0-2e-3 -11.828c-38.626-8.2547-80.369-24.742-103.89-48.256-23.515-23.524-40.003-65.262-48.258-103.89a6.0472 6.0472 0 0 0-5.9141-4.7832z"
   fill="#ffe551"
   id="path1"
   style="fill:#28628d;fill-opacity:1" />
	<path
   class="st0"
   transform="translate(19.685 8.45)"
   d="m376.04 234.65a6.0472 6.0472 0 0 0-4.291 4.5605c-4.8933 22.854-14.572 47.27-28.162 60.859-13.595 13.58-38.008 23.283-60.855 28.176a6.0472 6.0472 0 0 0 0 11.828c22.856 4.8919 47.258 14.581 60.854 28.176 13.592 13.585 23.29 38 28.182 60.852a6.0472 6.0472 0 0 0 11.828-2e-3c4.8827-22.859 14.579-47.266 28.164-60.859 13.585-13.585 38.003-23.284 60.848-28.184a6.0472 6.0472 0 0 0-4e-3 -11.826c-22.842-4.8837-47.258-14.58-60.85-28.164-13.579-13.585-23.292-38.005-28.176-60.854a6.0472 6.0472 0 0 0-7.5371-4.5625z"
   fill="#c1c4ff"
   id="path2"
   style="fill:#5c8dc6;fill-opacity:1" />
	<path
   class="st0"
   transform="translate(-44.056 10.692)"
   d="m143.44 332.13a6.0472 6.0472 0 0 0-4.291 4.5586c-4.0893 19.098-12.157 39.392-23.381 50.615-11.226 11.219-31.511 19.302-50.604 23.391a6.0472 6.0472 0 0 0-0.0039 11.826c19.098 4.0986 39.382 12.159 50.607 23.393 11.228 11.226 19.31 31.5 23.398 50.605a6.0472 6.0472 0 0 0 11.828-2e-3c4.0851-19.107 12.152-39.377 23.385-50.613 11.216-11.223 31.506-19.301 50.598-23.398a6.0472 6.0472 0 0 0-6e-3 -11.826c-19.088-4.0819-39.376-12.156-50.601-23.383-11.222-11.216-19.308-31.512-23.393-50.607a6.0472 6.0472 0 0 0-7.5371-4.5586z"
   fill="#def0ff"
   id="path3"
   style="fill:#a3b1c3;fill-opacity:1" />
</g>
</svg>
