<?xml version="1.0" encoding="UTF-8" standalone="no"?>
<svg
   height="397.33334"
   viewBox="0 0 410.66666 397.33334"
   width="410.66666"
   version="1.1"
   id="svg3"
   sodipodi:docname="star.svg"
   inkscape:version="1.3.2 (091e20e, 2023-11-25)"
   xmlns:inkscape="http://www.inkscape.org/namespaces/inkscape"
   xmlns:sodipodi="http://sodipodi.sourceforge.net/DTD/sodipodi-0.dtd"
   xmlns="http://www.w3.org/2000/svg"
   xmlns:svg="http://www.w3.org/2000/svg">
  <defs
     id="defs3" />
  <sodipodi:namedview
     id="namedview3"
     pagecolor="#ffffff"
     bordercolor="#666666"
     borderopacity="1.0"
     inkscape:showpageshadow="2"
     inkscape:pageopacity="0.0"
     inkscape:pagecheckerboard="0"
     inkscape:deskcolor="#d1d1d1"
     inkscape:zoom="0.59395972"
     inkscape:cx="204.55933"
     inkscape:cy="198.66667"
     inkscape:window-width="1312"
     inkscape:window-height="691"
     inkscape:window-x="0"
     inkscape:window-y="0"
     inkscape:window-maximized="0"
     inkscape:current-layer="svg3" />
  <path
     d="m 205.41599,0.77600658 c -4.51466,0 -9.01466,0.54133332 -13.40533,1.60933332 -4.38533,1.0679999 -8.63066,2.6559999 -12.64666,4.7293332 -4.00934,2.0733333 -7.76,4.6253329 -11.16667,7.5879999 -3.40533,2.964 -6.448,6.324 -9.05733,10.010666 -2.60934,3.688 -4.77067,7.672 -6.432,11.870667 l -26.72934,67.509334 -72.457328,4.55733 c -5.0104,0.31867 -9.9588,1.30267 -14.709333,2.92267 -4.754667,1.61466 -9.2708,3.85866 -13.431733,6.66666 -4.156267,2.80667 -7.9272,6.156 -11.2084,9.95734 -3.276026,3.79733 -6.0359329,8.02133 -8.2077995,12.548 -2.1666666,4.52533 -3.7239599,9.32266 -4.6307332,14.26 -0.90677064,4.93733 -1.1562493,9.968 -0.73489598,14.97333 0.41770798,5 1.50000258,9.928 3.21353588,14.64133 1.71876,4.71867 4.0520933,9.18667 6.9427198,13.292 2.89584,4.104 6.318773,7.80133 10.187973,11.00533 l 55.937599,46.28 -18.052133,70.324 c -1.249467,4.85894 -1.849467,9.86933 -1.776,14.89067 0.07333,5.01453 0.807733,10.00413 2.1932,14.83333 1.380133,4.8224 3.4,9.44787 6,13.73853 2.604133,4.29734 5.7656,8.224 9.399999,11.688 3.635867,3.46407 7.714534,6.42658 12.130667,8.81199 4.4172,2.39063 9.1308,4.18281 14.016132,5.32812 4.89067,1.14688 9.9052,1.64115 14.92147,1.46407 5.02133,-0.17188 9.99426,-1.01615 14.7916,-2.49479 4.79213,-1.48385 9.36946,-3.60417 13.60946,-6.29219 l 61.30133,-38.9104 61.308,38.9104 c 2.71867,1.72968 5.588,3.21875 8.56267,4.46406 2.97867,1.2401 6.05733,2.22396 9.19733,2.9375 3.14667,0.71875 6.344,1.16667 9.56267,1.33854 3.224,0.17188 6.45333,0.0734 9.65067,-0.3026 3.204,-0.37968 6.37066,-1.02552 9.464,-1.94271 3.08933,-0.91041 6.09866,-2.08803 8.98933,-3.51041 2.896,-1.42656 5.66133,-3.09896 8.27067,-4.9948 2.60933,-1.89478 5.05199,-4.00931 7.30266,-6.31718 2.24533,-2.312 4.29733,-4.812 6.12,-7.46826 1.82267,-2.6572 3.416,-5.4692 4.76533,-8.40107 1.344,-2.92813 2.44267,-5.96973 3.27067,-9.08427 0.828,-3.11466 1.396,-6.29586 1.68267,-9.5052 0.292,-3.2136 0.30666,-6.448 0.0467,-9.66146 -0.26,-3.21307 -0.79733,-6.40107 -1.59333,-9.51987 l -18.05733,-70.324 55.93733,-46.28 c 2.484,-2.05733 4.78667,-4.324 6.88533,-6.772 2.09867,-2.448 3.984,-5.06666 5.64,-7.83866 1.652,-2.76533 3.068,-5.67067 4.224,-8.676 1.16134,-3.01067 2.06267,-6.11467 2.69334,-9.27067 0.63466,-3.16666 0.99466,-6.376 1.08266,-9.6 0.084,-3.224 -0.104,-6.448 -0.56666,-9.64 -0.45867,-3.188 -1.19334,-6.33333 -2.188,-9.40133 -1,-3.068 -2.25467,-6.04133 -3.75467,-8.896 -1.50533,-2.85333 -3.24533,-5.572 -5.20933,-8.12933 -1.968,-2.55334 -4.14534,-4.93867 -6.51467,-7.12534 -2.37067,-2.188 -4.92267,-4.16666 -7.62533,-5.92266 -2.708,-1.74934 -5.55734,-3.27067 -8.52667,-4.536 -2.96267,-1.27067 -6.03067,-2.28134 -9.16667,-3.02667 -3.13466,-0.74933 -6.33333,-1.22267 -9.552,-1.432 L 284.86003,104.09334 258.1307,36.584006 c -1.66133,-4.198667 -3.824,-8.182667 -6.43333,-11.870667 C 249.08803,21.026673 246.0467,17.666673 242.64003,14.69734 239.22937,11.734673 235.4787,9.1880064 231.46937,7.1146731 227.4587,5.0360065 223.20803,3.4480065 218.8227,2.3800065 214.43203,1.3120066 209.93203,0.77600658 205.41603,0.77600658 Z"
     id="path1"
     style="stroke-width:0.133333" />
  <path
     d="m 202.86399,25.437339 c -3.40533,0.270667 -6.74399,1.084 -9.89466,2.406667 -2.62,1.104 -5.08933,2.552 -7.32933,4.301333 -2.244,1.750667 -4.23867,3.792 -5.94667,6.068 -1.704,2.281333 -3.1,4.776 -4.14667,7.422666 l -32.464,81.994665 -88.020128,5.54133 c -3.655733,0.22934 -7.245333,1.08267 -10.609466,2.52134 -3.370267,1.43733 -6.463467,3.44266 -9.155734,5.92666 -2.687999,2.47867 -4.937466,5.40667 -6.641066,8.64534 -1.7084,3.24 -2.849467,6.74533 -3.369867,10.37066 -0.526533,3.624 -0.426533,7.312 0.292267,10.9 0.718667,3.58934 2.041067,7.032 3.921333,10.172 1.874534,3.14667 4.276,5.94267 7.0984,8.28134 L 104.55733,246.208 82.625465,331.63066 c -0.911867,3.5464 -1.209334,7.224 -0.880134,10.86934 0.333334,3.64533 1.2812,7.20786 2.8068,10.536 1.530667,3.32386 3.619733,6.36506 6.171867,8.99053 2.552,2.6188 5.535866,4.79067 8.8172,6.41093 3.286932,1.61467 6.822802,2.66094 10.458802,3.08907 3.636,0.42653 7.32293,0.22813 10.89066,-0.58907 3.56814,-0.812 6.97334,-2.2296 10.0624,-4.19213 l 74.46293,-47.25626 74.46934,47.25626 c 1.79733,1.14533 3.708,2.10413 5.69866,2.8692 1.99467,0.76 4.052,1.32293 6.156,1.6828 2.104,0.3532 4.23334,0.5 6.364,0.43187 2.136,-0.0677 4.256,-0.34894 6.328,-0.83334 2.07867,-0.48906 4.09867,-1.18226 6.03734,-2.06773 1.93733,-0.89067 3.78533,-1.96827 5.50933,-3.224 1.724,-1.24947 3.31867,-2.6724 4.76133,-4.24013 1.448,-1.57187 2.72934,-3.2812 3.83334,-5.10414 1.104,-1.8224 2.02533,-3.75466 2.744,-5.75986 0.724,-2.0052 1.24533,-4.07867 1.55733,-6.188 0.31333,-2.10934 0.412,-4.24374 0.30267,-6.37454 -0.10934,-2.13066 -0.432,-4.24013 -0.964,-6.3068 l -21.932,-85.42266 67.95866,-56.21866 c 1.64,-1.35867 3.14533,-2.88 4.48933,-4.54134 1.33867,-1.656 2.516,-3.44266 3.5,-5.33333 0.98934,-1.88533 1.78667,-3.86933 2.38,-5.91733 0.59334,-2.04667 0.984,-4.15067 1.16134,-6.276 0.18266,-2.124 0.14666,-4.26534 -0.0987,-6.38 -0.24533,-2.12 -0.70267,-4.208 -1.36,-6.23467 -0.66133,-2.03067 -1.52,-3.98933 -2.56667,-5.84267 -1.048,-1.86 -2.276,-3.60933 -3.66666,-5.224 -1.396,-1.61466 -2.94267,-3.084 -4.63067,-4.39066 -1.68267,-1.308 -3.49467,-2.44267 -5.40667,-3.39067 -1.90533,-0.948 -3.90533,-1.704 -5.968,-2.26133 -2.05733,-0.54667 -4.16666,-0.89467 -6.29733,-1.02534 l -88.02133,-5.54133 -32.46267,-81.994665 c -1.26133,-3.177333 -3.016,-6.130666 -5.204,-8.755999 -2.18666,-2.625334 -4.78133,-4.88 -7.68133,-6.686667 -2.90133,-1.808 -6.068,-3.136 -9.39067,-3.942666 -3.31866,-0.813334 -6.74533,-1.084 -10.152,-0.813334 z"
     fill="#ffffff"
     id="path2"
     style="stroke-width:0.133333" />
  <path
     d="m 205.41599,42.344006 c -2.00933,0 -4.004,0.401333 -5.85866,1.182666 -1.85467,0.776 -3.536,1.921333 -4.94267,3.358667 -1.40666,1.437333 -2.516,3.141333 -3.25466,5.010666 L 154.92133,143.932 56.130665,150.14534 c -2.411866,0.15733 -4.756133,0.88533 -6.828,2.12533 -2.073466,1.24533 -3.818799,2.96933 -5.083866,5.02667 -1.270933,2.05733 -2.0308,4.39066 -2.2136,6.80133 -0.182267,2.412 0.2188,4.828 1.161467,7.052 0.947866,2.22933 2.412,4.19333 4.275999,5.73467 l 76.270935,63.09333 -24.620402,95.88119 c -0.5984,2.3428 -0.6292,4.79067 -0.088,7.15054 0.546933,2.3536 1.645332,4.54693 3.208402,6.38546 1.5676,1.84427 3.54626,3.28694 5.7864,4.20254 2.23493,0.92293 4.65626,1.28706 7.06826,1.07866 2.4052,-0.21306 4.72907,-1 6.77027,-2.2968 l 83.57746,-53.03653 83.584,53.03653 c 1.27067,0.80774 2.656,1.4224 4.10934,1.81707 1.45333,0.39587 2.95866,0.57347 4.464,0.52667 1.50533,-0.0469 2.99466,-0.3172 4.42133,-0.8068 1.42667,-0.48547 2.77067,-1.18227 3.98933,-2.06774 1.21867,-0.88546 2.29734,-1.94786 3.204,-3.15626 0.90534,-1.20414 1.624,-2.53747 2.13467,-3.95307 0.51067,-1.41773 0.808,-2.9016 0.88,-4.4068 0.068,-1.5052 -0.0827,-3.01613 -0.45733,-4.47347 l -24.62,-95.88119 76.27066,-63.09333 c 1.16133,-0.964 2.172,-2.088 3,-3.34934 0.82267,-1.26 1.45867,-2.63466 1.88,-4.08266 0.41733,-1.448 0.62,-2.948 0.59867,-4.45334 -0.0253,-1.50533 -0.276,-3.00533 -0.73867,-4.43733 -0.46933,-1.432 -1.14667,-2.78667 -2.01067,-4.02133 -0.86533,-1.22934 -1.912,-2.328 -3.104,-3.24934 -1.188,-0.92266 -2.51066,-1.66666 -3.92266,-2.19866 -1.40534,-0.53067 -2.89067,-0.848 -4.39067,-0.948 L 255.91733,143.932 219.47866,51.896005 c -0.744,-1.874666 -1.848,-3.578666 -3.25467,-5.016 -1.412,-1.437333 -3.09333,-2.577333 -4.948,-3.358666 -1.85466,-0.776 -3.84933,-1.177333 -5.86,-1.177333 z"
     fill="#ffc124"
     id="path3"
     style="stroke-width:0.133333;fill:#ffc124;fill-opacity:1" />
</svg>
