<?xml version="1.0" encoding="UTF-8" standalone="no"?>
<svg
   width="718.039"
   height="258.40015"
   viewBox="0 0 718.039 258.40015"
   version="1.1"
   id="svg44"
   sodipodi:docname="3-3.svg"
   xmlns:inkscape="http://www.inkscape.org/namespaces/inkscape"
   xmlns:sodipodi="http://sodipodi.sourceforge.net/DTD/sodipodi-0.dtd"
   xmlns:xlink="http://www.w3.org/1999/xlink"
   xmlns="http://www.w3.org/2000/svg"
   xmlns:svg="http://www.w3.org/2000/svg">
  <defs
     id="defs44" />
  <sodipodi:namedview
     id="namedview44"
     pagecolor="#ffffff"
     bordercolor="#666666"
     borderopacity="1.0"
     inkscape:showpageshadow="2"
     inkscape:pageopacity="0.0"
     inkscape:pagecheckerboard="0"
     inkscape:deskcolor="#d1d1d1" />
  <title
     id="title1">Gnuplot</title>
  <desc
     id="desc1">Produced by GNUPLOT 5.4 patchlevel 3 </desc>
  <g
     id="gnuplot_canvas"
     transform="translate(-61.509375,-20.695937)">
    <rect
       x="0"
       y="0"
       width="800"
       height="300"
       fill="none"
       id="rect1" />
    <defs
       id="defs2">
      <circle
         id="gpDot"
         r="0.5"
         stroke-width="0.5"
         stroke="currentColor"
         cx="0"
         cy="0" />
      <path
         id="gpPt0"
         stroke-width="0.148"
         stroke="currentColor"
         d="M -1,0 H 1 M 0,-1 v 2" />
      <path
         id="gpPt1"
         stroke-width="0.148"
         stroke="currentColor"
         d="M -1,-1 1,1 M 1,-1 -1,1" />
      <path
         id="gpPt2"
         stroke-width="0.148"
         stroke="currentColor"
         d="M -1,0 H 1 M 0,-1 v 2 m -1,-2 2,2 m -2,0 2,-2" />
      <rect
         id="gpPt3"
         stroke-width="0.148"
         stroke="currentColor"
         x="-1"
         y="-1"
         width="2"
         height="2" />
      <rect
         id="gpPt4"
         stroke-width="0.148"
         stroke="currentColor"
         fill="currentColor"
         x="-1"
         y="-1"
         width="2"
         height="2" />
      <circle
         id="gpPt5"
         stroke-width="0.148"
         stroke="currentColor"
         cx="0"
         cy="0"
         r="1" />
      <use
         xlink:href="#gpPt5"
         id="gpPt6"
         fill="currentColor"
         stroke="none" />
      <path
         id="gpPt7"
         stroke-width="0.148"
         stroke="currentColor"
         d="m 0,-1.33 -1.33,2 h 2.66 z" />
      <use
         xlink:href="#gpPt7"
         id="gpPt8"
         fill="currentColor"
         stroke="none" />
      <use
         xlink:href="#gpPt7"
         id="gpPt9"
         stroke="currentColor"
         transform="scale(-1)" />
      <use
         xlink:href="#gpPt9"
         id="gpPt10"
         fill="currentColor"
         stroke="none" />
      <use
         xlink:href="#gpPt3"
         id="gpPt11"
         stroke="currentColor"
         transform="rotate(45)" />
      <use
         xlink:href="#gpPt11"
         id="gpPt12"
         fill="currentColor"
         stroke="none" />
      <path
         id="gpPt13"
         stroke-width="0.148"
         stroke="currentColor"
         d="M 0,1.33 1.265,0.411 0.782,-1.067 -0.782,-1.076 -1.265,0.411 Z" />
      <use
         xlink:href="#gpPt13"
         id="gpPt14"
         fill="currentColor"
         stroke="none" />
      <filter
         id="textbox"
         filterUnits="objectBoundingBox"
         x="0"
         y="0"
         height="1"
         width="1">
        <feFlood
           flood-color="white"
           flood-opacity="1"
           result="bgnd"
           id="feFlood1" />
        <feComposite
           in="SourceGraphic"
           in2="bgnd"
           operator="atop"
           id="feComposite1" />
      </filter>
      <filter
         id="greybox"
         filterUnits="objectBoundingBox"
         x="0"
         y="0"
         height="1"
         width="1">
        <feFlood
           flood-color="lightgrey"
           flood-opacity="1"
           result="grey"
           id="feFlood2" />
        <feComposite
           in="SourceGraphic"
           in2="grey"
           operator="atop"
           id="feComposite2" />
      </filter>
    </defs>
    <g
       fill="none"
       color="#ffffff"
       stroke="currentColor"
       stroke-width="1"
       stroke-linecap="butt"
       stroke-linejoin="miter"
       id="g2" />
    <g
       fill="none"
       color="#000000"
       stroke="currentColor"
       stroke-width="1"
       stroke-linecap="butt"
       stroke-linejoin="miter"
       id="g4">
      <path
         stroke="#000001"
         d="M 157.5,246 H 171 m 591.19,0 h -13.5"
         id="path2" />
      <g
         transform="translate(144.9,251.85)"
         stroke="none"
         fill="#000001"
         font-family="'Times New Roman'"
         font-size="18px"
         text-anchor="end"
         id="g3">
        <text
           id="text2"><tspan
             font-family="'Times New Roman'"
             id="tspan2">0.0000010</tspan></text>
      </g>
    </g>
    <g
       fill="none"
       color="#000000"
       stroke="currentColor"
       stroke-width="1"
       stroke-linecap="butt"
       stroke-linejoin="miter"
       id="g6">
      <path
         stroke="#000001"
         d="m 157.5,236.58 h 6.75 m 597.94,0 h -6.75 M 157.5,231.07 h 6.75 m 597.94,0 h -6.75 M 157.5,227.16 h 6.75 m 597.94,0 h -6.75 M 157.5,224.13 h 6.75 m 597.94,0 h -6.75 M 157.5,221.66 h 6.75 m 597.94,0 h -6.75 m -597.94,-2.1 h 6.75 m 597.94,0 h -6.75 M 157.5,217.75 h 6.75 m 597.94,0 h -6.75 m -597.94,-1.6 h 6.75 m 597.94,0 h -6.75 M 157.5,214.72 H 171 m 591.19,0 h -13.5"
         id="path4" />
      <g
         transform="translate(144.9,220.57)"
         stroke="none"
         fill="#000001"
         font-family="'Times New Roman'"
         font-size="18px"
         text-anchor="end"
         id="g5">
        <text
           id="text4"><tspan
             font-family="'Times New Roman'"
             id="tspan4">0.0000100</tspan></text>
      </g>
    </g>
    <g
       fill="none"
       color="#000000"
       stroke="currentColor"
       stroke-width="1"
       stroke-linecap="butt"
       stroke-linejoin="miter"
       id="g8">
      <path
         stroke="#000001"
         d="m 157.5,205.3 h 6.75 m 597.94,0 h -6.75 M 157.5,199.79 h 6.75 m 597.94,0 h -6.75 M 157.5,195.88 h 6.75 m 597.94,0 h -6.75 M 157.5,192.85 h 6.75 m 597.94,0 h -6.75 M 157.5,190.37 h 6.75 m 597.94,0 h -6.75 M 157.5,188.28 h 6.75 m 597.94,0 h -6.75 M 157.5,186.46 h 6.75 m 597.94,0 h -6.75 m -597.94,-1.6 h 6.75 m 597.94,0 h -6.75 M 157.5,183.43 H 171 m 591.19,0 h -13.5"
         id="path6" />
      <g
         transform="translate(144.9,189.28)"
         stroke="none"
         fill="#000001"
         font-family="'Times New Roman'"
         font-size="18px"
         text-anchor="end"
         id="g7">
        <text
           id="text6"><tspan
             font-family="'Times New Roman'"
             id="tspan6">0.0001000</tspan></text>
      </g>
    </g>
    <g
       fill="none"
       color="#000000"
       stroke="currentColor"
       stroke-width="1"
       stroke-linecap="butt"
       stroke-linejoin="miter"
       id="g10">
      <path
         stroke="#000001"
         d="m 157.5,174.01 h 6.75 m 597.94,0 h -6.75 m -597.94,-5.5 h 6.75 m 597.94,0 h -6.75 M 157.5,164.6 h 6.75 m 597.94,0 h -6.75 M 157.5,161.56 h 6.75 m 597.94,0 h -6.75 M 157.5,159.09 h 6.75 m 597.94,0 h -6.75 m -597.94,-2.1 h 6.75 m 597.94,0 h -6.75 M 157.5,155.18 h 6.75 m 597.94,0 h -6.75 m -597.94,-1.6 h 6.75 m 597.94,0 h -6.75 M 157.5,152.15 H 171 m 591.19,0 h -13.5"
         id="path8" />
      <g
         transform="translate(144.9,158)"
         stroke="none"
         fill="#000001"
         font-family="'Times New Roman'"
         font-size="18px"
         text-anchor="end"
         id="g9">
        <text
           id="text8"><tspan
             font-family="'Times New Roman'"
             id="tspan8">0.0010000</tspan></text>
      </g>
    </g>
    <g
       fill="none"
       color="#000000"
       stroke="currentColor"
       stroke-width="1"
       stroke-linecap="butt"
       stroke-linejoin="miter"
       id="g12">
      <path
         stroke="#000001"
         d="m 157.5,142.73 h 6.75 m 597.94,0 h -6.75 M 157.5,137.22 h 6.75 m 597.94,0 h -6.75 M 157.5,133.31 h 6.75 m 597.94,0 h -6.75 M 157.5,130.28 h 6.75 m 597.94,0 h -6.75 M 157.5,127.8 h 6.75 m 597.94,0 h -6.75 M 157.5,125.71 h 6.75 m 597.94,0 h -6.75 M 157.5,123.89 h 6.75 m 597.94,0 h -6.75 m -597.94,-1.6 h 6.75 m 597.94,0 h -6.75 M 157.5,120.86 H 171 m 591.19,0 h -13.5"
         id="path10" />
      <g
         transform="translate(144.9,126.71)"
         stroke="none"
         fill="#000001"
         font-family="'Times New Roman'"
         font-size="18px"
         text-anchor="end"
         id="g11">
        <text
           id="text10"><tspan
             font-family="'Times New Roman'"
             id="tspan10">0.0100000</tspan></text>
      </g>
    </g>
    <g
       fill="none"
       color="#000000"
       stroke="currentColor"
       stroke-width="1"
       stroke-linecap="butt"
       stroke-linejoin="miter"
       id="g14">
      <path
         stroke="#000001"
         d="m 157.5,111.45 h 6.75 m 597.94,0 h -6.75 M 157.5,105.94 h 6.75 m 597.94,0 h -6.75 M 157.5,102.03 h 6.75 m 597.94,0 h -6.75 M 157.5,99 h 6.75 m 597.94,0 h -6.75 M 157.5,96.52 h 6.75 m 597.94,0 h -6.75 M 157.5,94.42 h 6.75 m 597.94,0 h -6.75 M 157.5,92.61 h 6.75 m 597.94,0 h -6.75 M 157.5,91.01 h 6.75 m 597.94,0 h -6.75 M 157.5,89.58 H 171 m 591.19,0 h -13.5"
         id="path12" />
      <g
         transform="translate(144.9,95.43)"
         stroke="none"
         fill="#000001"
         font-family="'Times New Roman'"
         font-size="18px"
         text-anchor="end"
         id="g13">
        <text
           id="text12"><tspan
             font-family="'Times New Roman'"
             id="tspan12">0.1000000</tspan></text>
      </g>
    </g>
    <g
       fill="none"
       color="#000000"
       stroke="currentColor"
       stroke-width="1"
       stroke-linecap="butt"
       stroke-linejoin="miter"
       id="g16">
      <path
         stroke="#000001"
         d="m 157.5,80.16 h 6.75 m 597.94,0 h -6.75 M 157.5,74.65 h 6.75 m 597.94,0 h -6.75 M 157.5,70.74 h 6.75 m 597.94,0 h -6.75 M 157.5,67.71 h 6.75 m 597.94,0 h -6.75 M 157.5,65.23 h 6.75 m 597.94,0 h -6.75 M 157.5,63.14 h 6.75 m 597.94,0 h -6.75 M 157.5,61.33 h 6.75 m 597.94,0 h -6.75 M 157.5,59.73 h 6.75 m 597.94,0 h -6.75 M 157.5,58.29 H 171 m 591.19,0 h -13.5"
         id="path14" />
      <g
         transform="translate(144.9,64.14)"
         stroke="none"
         fill="#000001"
         font-family="'Times New Roman'"
         font-size="18px"
         text-anchor="end"
         id="g15">
        <text
           id="text14"><tspan
             font-family="'Times New Roman'"
             id="tspan14">1.0000000</tspan></text>
      </g>
    </g>
    <g
       fill="none"
       color="#000000"
       stroke="currentColor"
       stroke-width="1"
       stroke-linecap="butt"
       stroke-linejoin="miter"
       id="g18">
      <path
         stroke="#000001"
         d="m 157.5,48.88 h 6.75 m 597.94,0 h -6.75 M 157.5,43.37 h 6.75 m 597.94,0 h -6.75 M 157.5,39.46 h 6.75 m 597.94,0 h -6.75 M 157.5,36.43 h 6.75 m 597.94,0 h -6.75 M 157.5,33.95 h 6.75 m 597.94,0 h -6.75 M 157.5,31.86 h 6.75 m 597.94,0 h -6.75 M 157.5,30.04 h 6.75 m 597.94,0 h -6.75 M 157.5,28.44 h 6.75 m 597.94,0 h -6.75 M 157.5,27.01 H 171 m 591.19,0 h -13.5"
         id="path16" />
      <g
         transform="translate(144.9,32.86)"
         stroke="none"
         fill="#000001"
         font-family="'Times New Roman'"
         font-size="18px"
         text-anchor="end"
         id="g17">
        <text
           id="text16"><tspan
             font-family="'Times New Roman'"
             id="tspan16">10.0000000</tspan></text>
      </g>
    </g>
    <g
       fill="none"
       color="#000000"
       stroke="currentColor"
       stroke-width="1"
       stroke-linecap="butt"
       stroke-linejoin="miter"
       id="g20">
      <path
         stroke="#000001"
         d="m 157.5,246 v -13.5 m 0,-205.49 v 13.5"
         id="path18" />
      <g
         transform="translate(157.5,278.85)"
         stroke="none"
         fill="#000001"
         font-family="'Times New Roman'"
         font-size="18px"
         text-anchor="middle"
         id="g19">
        <text
           id="text18"><tspan
             font-family="'Times New Roman'"
             id="tspan18">0</tspan></text>
      </g>
    </g>
    <g
       fill="none"
       color="#000000"
       stroke="currentColor"
       stroke-width="1"
       stroke-linecap="butt"
       stroke-linejoin="miter"
       id="g22">
      <path
         stroke="#000001"
         d="m 278.44,246 v -13.5 m 0,-205.49 v 13.5"
         id="path20" />
      <g
         transform="translate(278.44,278.85)"
         stroke="none"
         fill="#000001"
         font-family="'Times New Roman'"
         font-size="18px"
         text-anchor="middle"
         id="g21">
        <text
           id="text20"><tspan
             font-family="'Times New Roman'"
             id="tspan20">260</tspan></text>
      </g>
    </g>
    <g
       fill="none"
       color="#000000"
       stroke="currentColor"
       stroke-width="1"
       stroke-linecap="butt"
       stroke-linejoin="miter"
       id="g24">
      <path
         stroke="#000001"
         d="m 399.38,246 v -13.5 m 0,-205.49 v 13.5"
         id="path22" />
      <g
         transform="translate(399.38,278.85)"
         stroke="none"
         fill="#000001"
         font-family="'Times New Roman'"
         font-size="18px"
         text-anchor="middle"
         id="g23">
        <text
           id="text22"><tspan
             font-family="'Times New Roman'"
             id="tspan22">520</tspan></text>
      </g>
    </g>
    <g
       fill="none"
       color="#000000"
       stroke="currentColor"
       stroke-width="1"
       stroke-linecap="butt"
       stroke-linejoin="miter"
       id="g26">
      <path
         stroke="#000001"
         d="m 520.31,246 v -13.5 m 0,-205.49 v 13.5"
         id="path24" />
      <g
         transform="translate(520.31,278.85)"
         stroke="none"
         fill="#000001"
         font-family="'Times New Roman'"
         font-size="18px"
         text-anchor="middle"
         id="g25">
        <text
           id="text24"><tspan
             font-family="'Times New Roman'"
             id="tspan24">780</tspan></text>
      </g>
    </g>
    <g
       fill="none"
       color="#000000"
       stroke="currentColor"
       stroke-width="1"
       stroke-linecap="butt"
       stroke-linejoin="miter"
       id="g28">
      <path
         stroke="#000001"
         d="m 641.25,246 v -13.5 m 0,-205.49 v 13.5"
         id="path26" />
      <g
         transform="translate(641.25,278.85)"
         stroke="none"
         fill="#000001"
         font-family="'Times New Roman'"
         font-size="18px"
         text-anchor="middle"
         id="g27">
        <text
           id="text26"><tspan
             font-family="'Times New Roman'"
             id="tspan26">1040</tspan></text>
      </g>
    </g>
    <g
       fill="none"
       color="#000000"
       stroke="currentColor"
       stroke-width="1"
       stroke-linecap="butt"
       stroke-linejoin="miter"
       id="g30">
      <path
         stroke="#000001"
         d="m 762.19,246 v -13.5 m 0,-205.49 v 13.5"
         id="path28" />
      <g
         transform="translate(762.19,278.85)"
         stroke="none"
         fill="#000001"
         font-family="'Times New Roman'"
         font-size="18px"
         text-anchor="middle"
         id="g29">
        <text
           id="text28"><tspan
             font-family="'Times New Roman'"
             id="tspan28">1300</tspan></text>
      </g>
    </g>
    <g
       fill="none"
       color="#000000"
       stroke="currentColor"
       stroke-width="1"
       stroke-linecap="butt"
       stroke-linejoin="miter"
       id="g31" />
    <g
       fill="none"
       color="#000000"
       stroke="currentColor"
       stroke-width="1"
       stroke-linecap="butt"
       stroke-linejoin="miter"
       id="g32">
      <path
         stroke="#000001"
         d="M 157.5,27.01 V 246 H 762.19 V 27.01 Z"
         id="path31" />
    </g>
    <g
       fill="none"
       color="#000000"
       stroke="currentColor"
       stroke-width="1"
       stroke-linecap="butt"
       stroke-linejoin="miter"
       id="g33" />
    <g
       id="gnuplot_plot_1">
      <title
         id="title33">||∇f(x)||</title>
      <g
         fill="none"
         color="#000000"
         stroke="currentColor"
         stroke-width="1"
         stroke-linecap="butt"
         stroke-linejoin="miter"
         id="g35">
        <g
           transform="translate(660.49,59.86)"
           stroke="none"
           fill="#000001"
           font-family="'Times New Roman'"
           font-size="18px"
           text-anchor="end"
           id="g34">
          <text
             id="text33"><tspan
               font-family="'Times New Roman'"
               id="tspan33">||∇f(x)||</tspan></text>
        </g>
      </g>
      <g
         fill="none"
         color="#000000"
         stroke="currentColor"
         stroke-width="1"
         stroke-linecap="butt"
         stroke-linejoin="miter"
         id="g36">
        <path
           stroke="#000003"
           d="m 673.09,54.01 h 63.9 m -579.49,-4.26 0.47,2.67 0.46,27.7 0.47,1.14 0.46,16.89 0.47,-14.53 0.46,15.98 0.47,-14.61 0.46,15.84 0.47,-14.64 0.46,15.82 0.47,-14.65 0.46,15.82 0.47,-14.65 0.46,15.82 0.47,-14.64 0.46,15.82 0.47,-14.65 0.46,15.82 0.47,-14.65 0.46,15.82 0.47,-14.65 0.46,15.82 0.47,-14.65 0.46,15.82 0.47,-14.64 0.46,15.82 0.47,-14.65 0.46,15.82 0.47,-14.65 0.46,15.82 0.47,-14.65 0.46,15.82 0.47,-14.65 0.46,15.82 0.47,-14.65 0.47,15.82 0.46,-14.64 0.47,15.81 0.46,-14.64 0.47,15.81 0.46,-14.64 0.47,15.82 0.46,-14.65 0.47,15.82 0.46,-14.65 0.47,15.82 0.46,-14.65 0.47,15.82 0.46,-14.65 0.47,15.81 0.46,-14.65 0.47,15.82 0.46,-14.65 0.47,15.82 0.46,-14.65 0.47,15.82 0.46,-14.65 0.47,15.81 0.46,-14.65 0.47,15.82 0.46,-14.66 0.47,15.82 0.46,-14.65 0.47,15.81 0.46,-14.65 0.47,15.81 0.46,-14.66 0.47,15.82 0.47,-14.66 0.46,15.81 0.47,-14.66 0.46,15.82 0.47,-14.67 0.46,15.81 0.47,-14.66 0.46,15.81 0.47,-14.67 0.46,15.8 0.47,-14.67 0.46,15.81 0.47,-14.68 0.46,15.8 0.47,-14.68 0.46,15.8 0.47,-14.69 0.46,15.8 0.47,-14.7 0.46,15.79 0.47,-14.7 0.46,15.79 0.47,-14.72 0.46,15.78 0.47,-14.72 0.46,15.78 0.47,-14.75 0.46,15.78 0.47,-14.76 0.46,15.77 0.47,-14.78 0.46,15.76 0.47,-14.79 0.46,15.75 0.47,-14.81 0.47,15.74 0.46,-14.84 0.47,15.73 0.46,-14.86 0.47,15.71 0.46,-14.89 0.47,15.71 0.46,-14.92 0.47,15.69 0.46,-14.95 0.47,15.67 0.46,-14.98 0.47,15.66 0.46,-15.02 0.47,15.65 0.46,-15.05 0.47,15.63 0.46,-15.08 0.47,15.62 0.46,-15.12 0.47,15.6 0.46,-15.15 0.47,15.59 0.46,-15.18 0.47,15.58 0.46,-15.22 0.47,15.57 0.46,-15.24 0.47,15.56 0.46,-15.27 0.47,15.55 0.46,-15.29 0.47,15.54 0.47,-15.31 0.46,15.53 0.47,-15.33 0.46,15.52 0.47,-15.34 0.46,15.51 0.47,-15.36 0.46,15.51 0.47,-15.37 0.46,15.51 0.47,-15.38 0.46,15.5 0.47,-15.39 0.46,15.49 0.47,-15.4 0.46,15.5 0.47,-15.41 0.46,15.49 0.47,-15.41 0.46,15.49 0.47,-15.42 0.46,15.49 0.47,-15.42 0.46,15.48 0.47,-15.42 0.46,15.48 0.47,-15.43 0.46,15.49 0.47,-15.43 0.46,15.48 0.47,-15.44 0.46,15.49 0.47,-15.44 0.46,15.48 0.47,-15.44 0.47,15.48 0.46,-15.43 0.47,15.47 0.46,-15.43 0.47,15.47 0.46,-15.43 0.47,15.47 0.46,-15.44 0.47,15.48 0.46,-15.44 0.47,15.48 0.46,-15.44 0.47,15.47 0.46,-15.44 0.47,15.48 0.46,-15.45 0.47,15.48 0.46,-15.44 0.47,15.47 0.46,-15.44 0.47,15.48 0.46,-15.44 0.47,15.47 0.46,-15.44 0.47,15.47 0.46,-15.44 0.47,15.48 0.46,-15.45 0.47,15.48 0.46,-15.44 0.47,15.47 0.46,-15.44 0.47,15.47 0.46,-15.44 0.47,15.48 0.47,-15.45 0.46,15.48 0.47,-15.45 0.46,15.48 0.47,-15.44 0.46,15.47 0.47,-15.44 0.46,15.47 0.47,-15.44 0.46,15.47 0.47,-15.44 0.46,15.48 0.47,-15.45 0.46,15.48 0.47,-15.45 0.46,15.48 0.47,-15.44 0.46,15.47 0.47,-15.44 0.46,15.47 0.47,-15.44 0.46,15.47 0.47,-15.44 0.46,15.48 0.47,-15.45 0.46,15.48 0.47,-15.45 0.46,15.48 0.47,-15.45 0.46,15.48 0.47,-15.44 0.46,15.47 0.47,-15.44 0.47,15.47 0.46,-15.44 0.47,15.47 0.46,-15.44 0.47,15.48 0.46,-15.45 0.47,15.48 0.46,-15.45 0.47,15.48 0.46,-15.45 0.47,15.48 0.46,-15.44 0.47,15.47 0.46,-15.44 0.47,15.47 0.46,-15.44 0.47,15.47 0.46,-15.44 0.47,15.48 0.46,-15.45 0.47,15.48 0.46,-15.45 0.47,15.48 0.46,-15.45 0.47,15.48 0.46,-15.44 0.47,15.47 0.46,-15.44 0.47,15.47 0.46,-15.44 0.47,15.47 0.46,-15.44 0.47,15.48 0.46,-15.45 0.47,15.48 0.47,-15.45 0.46,15.48 0.47,-15.45 0.46,15.48 0.47,-15.44 0.46,15.47 0.47,-15.44 0.46,15.47 0.47,-15.44 0.46,15.47 0.47,-15.44 0.46,15.48 0.47,-15.45 0.46,15.48 0.47,-15.45 0.46,15.48 0.47,-15.45 0.46,15.48 0.47,-15.44 0.46,15.47 0.47,-15.44 0.46,15.47 0.47,-15.44 0.46,15.47 0.47,-15.44 0.46,15.48 0.47,-15.45 0.46,15.48 0.47,-15.45 0.46,15.48 0.47,-15.45 0.46,15.48 0.47,-15.44 0.47,15.47 0.46,-15.44 0.47,15.47 0.46,-15.44 0.47,15.47 0.46,-15.44 0.47,15.48 0.46,-15.45 0.47,15.48 0.46,-15.45 0.47,15.48 0.46,-15.45 0.47,15.48 0.46,-15.44 0.47,15.47 0.46,-15.44 0.47,15.47 0.46,-15.44 0.47,15.47 0.46,-15.44 0.47,15.48 0.46,-15.45 0.47,15.48 0.46,-15.45 0.47,15.48 0.46,-15.45 0.47,15.48 0.46,-15.44 0.47,15.47 0.46,-15.44 0.47,15.47 0.46,-15.44 0.47,15.47 0.46,-15.44 0.47,15.48 0.47,-15.45 0.46,15.48 0.47,-15.45 0.46,15.48 0.47,-15.45 0.46,15.48 0.47,-15.44 0.46,15.47 0.47,-15.44 0.46,15.47 0.47,-15.44 0.46,15.47 0.47,-15.44 0.46,15.48 0.47,-15.45 0.46,15.48 0.47,-15.45 0.46,15.48 0.47,-15.45 0.46,15.48 0.47,-15.44 0.46,15.47 0.47,-15.44 0.46,15.47 0.47,-15.44 0.46,15.47 0.47,-15.44 0.46,15.48 0.47,-15.45 0.46,15.48 0.47,-15.45 0.46,15.48 0.47,-15.45 0.46,15.48 0.47,-15.44 0.47,15.47 0.46,-15.44 0.47,15.47 0.46,-15.44 0.47,15.47 0.46,-15.44 0.47,15.48 0.46,-15.45 0.47,15.48 0.46,-15.45 0.47,15.48 0.46,-15.45 0.47,15.48 0.46,-15.44 0.47,15.47 0.46,-15.44 0.47,15.47 0.46,-15.44 0.47,15.47 0.46,-15.44 0.47,15.48 0.46,-15.45 0.47,15.48 0.46,-15.45 0.47,15.48 0.46,-15.45 0.47,15.48 0.46,-15.44 0.47,15.47 0.46,-15.44 0.47,15.47 0.46,-15.44 0.47,15.47 0.47,-15.44 0.46,15.48 0.47,-15.45 0.46,15.48 0.47,-15.45 0.46,15.48 0.47,-15.45 0.46,15.48 0.47,-15.44 0.46,15.47 0.47,-15.44 0.46,15.47 0.47,-15.44 0.46,15.47 0.47,-15.44 0.46,15.48 0.47,-15.45 0.46,15.48 0.47,-15.45 0.46,15.48 0.47,-15.45 0.46,15.48 0.47,-15.44 0.46,15.47 0.47,-15.44 0.46,15.47 0.47,-15.44 0.46,15.47 0.47,-15.44 0.46,15.48 0.47,-15.45 0.46,15.48 0.47,-15.45 0.46,15.48 0.47,-15.45 0.47,15.48 0.46,-15.44 0.47,15.47 0.46,-15.44 0.47,15.47 0.46,-15.44 0.47,15.47 0.46,-15.44 0.47,15.48 0.46,-15.45 0.47,15.48 0.46,-15.45 0.47,15.48 0.46,-15.45 0.47,15.48 0.46,-15.44 0.47,15.47 0.46,-15.44 0.47,15.47 0.46,-15.44 0.47,15.47 0.46,-15.44 0.47,15.48 0.46,-15.45 0.47,15.48 0.46,-15.45 0.47,15.48 0.46,-15.45 0.47,15.48 0.46,-15.44 0.47,15.47 0.46,-15.44 0.47,15.47 0.47,-15.44 0.46,15.47 0.47,-15.44 0.46,15.48 0.47,-15.45 0.46,15.48 0.47,-15.45 0.46,15.48 0.47,-15.45 0.46,15.48 0.47,-15.44 0.46,15.47 0.47,-15.44 0.46,15.47 0.47,-15.44 0.46,15.47 0.47,-15.44 0.46,15.48 0.47,-15.45 0.46,15.48 0.47,-15.45 0.46,15.48 0.47,-15.45 0.46,15.48 0.47,-15.44 0.46,15.47 0.47,-15.44 0.46,15.47 0.47,-15.44 0.46,15.47 0.47,-15.44 0.46,15.48 0.47,-15.45 0.46,15.48 0.47,-15.45 0.47,15.48 0.46,-15.45 0.47,15.48 0.46,-15.44 0.47,15.47 0.46,-15.44 0.47,15.47 0.46,-15.44 0.47,15.47 0.46,-15.44 0.47,15.48 0.46,-15.45 0.47,15.48 0.46,-15.45 0.47,15.48 0.46,-15.45 0.47,15.48 0.46,-15.44 0.47,15.47 0.46,-15.44 0.47,15.47 0.46,-15.44 0.47,15.47 0.46,-15.44 0.47,15.47 0.46,-15.44 0.47,15.48 0.46,-15.45 0.47,15.48 0.46,-15.45 0.47,15.48 0.46,-15.45 0.47,15.48 0.46,-15.44 0.47,15.47 0.47,-15.44 0.46,15.47 0.47,-15.44 0.46,15.47 0.47,-15.44 0.46,15.48 0.47,-15.45 0.46,15.48 0.47,-15.45 0.46,15.48 0.47,-15.45 0.46,15.48 0.47,-15.44 0.46,15.47 0.47,-15.44 0.46,15.47 0.47,-15.44 0.46,15.47 0.47,-15.44 0.46,15.48 0.47,-15.45 0.46,15.48 0.47,-15.45 0.46,15.48 0.47,-15.45 0.46,15.48 0.47,-15.44 0.46,15.47 0.47,-15.44 0.46,15.47 0.47,-15.44 0.46,15.47 0.47,-15.44 0.47,15.48 0.46,-15.45 0.47,15.48 0.46,-15.45 0.47,15.48 0.46,-15.45 0.47,15.48 0.46,-15.44 0.47,15.47 0.46,-15.44 0.47,15.47 0.46,-15.44 0.47,15.47 0.46,-15.44 0.47,15.48 0.46,-15.45 0.47,15.48 0.46,-15.45 0.47,15.48 0.46,-15.45 0.47,15.48 0.46,-15.44 0.47,15.47 0.46,-15.44 0.47,15.47 0.46,-15.44 0.47,15.47 0.46,-15.44 0.47,15.48 0.46,-15.45 0.47,15.48 0.46,-15.45 0.47,15.48 0.46,-15.45 0.47,15.48 0.47,-15.44 0.46,15.47 0.47,-15.44 0.46,15.47 0.47,-15.44 0.46,15.47 0.47,-15.44 0.46,15.48 0.47,-15.45 0.46,15.48 0.47,-15.45 0.46,15.48 0.47,-15.45 0.46,15.48 0.47,-15.44 0.46,15.47 0.47,-15.44 0.46,15.47 0.47,-15.44 0.46,15.47 0.47,-15.44 0.46,15.48 0.47,-15.45 0.46,15.48 0.47,-15.45 0.46,15.48 0.47,-15.45 0.46,15.48 0.47,-15.44 0.46,15.47 0.47,-15.44 0.46,15.47 0.47,-15.44 0.47,15.47 0.46,-15.44 0.47,15.48 0.46,-15.45 0.47,15.48 0.46,-15.45 0.47,15.48 0.46,-15.45 0.47,15.48 0.46,-15.44 0.47,15.47 0.46,-15.44 0.47,15.47 0.46,-15.44 0.47,15.47 0.46,-15.44 0.47,15.48 0.46,-15.45 0.47,15.48 0.46,-15.45 0.47,15.48 0.46,-15.45 0.47,15.48 0.46,-15.44 0.47,15.47 0.46,-15.44 0.47,15.47 0.46,-15.44 0.47,15.47 0.46,-15.44 0.47,15.48 0.46,-15.45 0.47,15.48 0.46,-15.45 0.47,15.48 0.47,-15.45 0.46,15.48 0.47,-15.44 0.46,15.47 0.47,-15.44 0.46,15.47 0.47,-15.44 0.46,15.47 0.47,-15.44 0.46,15.48 0.47,-15.45 0.46,15.48 0.47,-15.45 0.46,15.48 0.47,-15.45 0.46,15.48 0.47,-15.44 0.46,15.47 0.47,-15.44 0.46,15.47 0.47,-15.44 0.46,15.47 0.47,-15.44 0.46,15.48 0.47,-15.45 0.46,15.48 0.47,-15.45 0.46,15.48 0.47,-15.45 0.46,15.48 0.47,-15.44 0.46,15.47 0.47,-15.44 0.46,15.47 0.47,-15.44 0.47,15.47 0.46,-15.44 0.47,15.48 0.46,-15.45 0.47,15.48 0.46,-15.45 0.47,15.48 0.46,-15.45 0.47,15.48 0.46,-15.44 0.47,15.47 0.46,-15.44 0.47,15.47 0.46,-15.44 0.47,15.47 0.46,-15.44 0.47,15.48 0.46,-15.45 0.47,15.48 0.46,-15.45 0.47,15.48 0.46,-15.45 0.47,15.48 0.46,-15.44 0.47,15.47 0.46,-15.44 0.47,15.47 0.46,-15.44 0.47,15.47 0.46,-15.44 0.47,15.48 0.46,-15.45 0.47,15.48 0.47,-15.45 0.46,15.48 0.47,-15.45 0.46,15.48 0.47,-15.44 0.46,15.47 0.47,-15.44 0.46,15.47 0.47,-15.44 0.46,15.47 0.47,-15.44 0.46,15.48 0.47,-15.45 0.46,15.48 0.47,-15.45 0.46,15.48 0.47,-15.45 0.46,15.48 0.47,-15.44 0.46,15.47 0.47,-15.44 0.46,15.47 0.47,-15.44 0.46,15.47 0.47,-15.44 0.46,15.48 0.47,-15.45 0.46,15.48 0.47,-15.45 0.46,15.48 0.47,-15.45 0.46,15.48 0.47,-15.44 0.46,15.47 0.47,-15.44 0.47,15.47 0.46,-15.44 0.47,15.47 0.46,-15.44 0.47,15.48 0.46,-15.45 0.47,15.48 0.46,-15.45 0.47,15.48 0.46,-15.45 0.47,15.48 0.46,-15.44 0.47,15.47 0.46,-15.44 0.47,15.47 0.46,-15.44 0.47,15.47 0.46,-15.44 0.47,15.48 0.46,-15.45 0.47,15.48 0.46,-15.45 0.47,15.48 0.46,-15.45 0.47,15.48 0.46,-15.44 0.47,15.47 0.46,-15.44 0.47,15.47 0.46,-15.44 0.47,15.47 0.46,-15.44 0.47,15.48 0.46,-15.45 0.47,15.48 0.47,-15.45 0.46,15.48 0.47,-15.45 0.46,15.48 0.47,-15.44 0.46,15.47 0.47,-15.44 0.46,15.47 0.47,-15.44 0.46,15.47 0.47,-15.44 0.46,15.48 0.47,-15.45 0.46,15.48 0.47,-15.45 0.46,15.48 0.47,-15.45 0.46,15.48 0.47,-15.44 0.46,15.47 0.47,-15.44 0.46,15.47 0.47,-15.44 0.46,15.47 0.47,-15.44 0.46,15.48 0.47,-15.45 0.46,15.48 0.47,-15.45 0.46,15.48 0.47,-15.45 0.46,15.48 0.47,-15.44 0.47,15.47 0.46,-15.44 0.47,15.47 0.46,-15.44 0.47,15.47 0.46,-15.44 0.47,15.48 0.46,-15.45 0.47,15.48 0.46,-15.45 0.47,15.48 0.46,-15.45 0.47,15.48 0.46,-15.44 0.47,15.47 0.46,-15.44 0.47,15.47 0.46,-15.44 0.47,15.47 0.46,-15.44 0.47,15.48 0.46,-15.45 0.47,15.48 0.46,-15.45 0.47,15.48 0.46,-15.45 0.47,15.48 0.46,-15.44 0.47,15.47 0.46,-15.44 0.47,15.47 0.46,-15.44 0.47,15.47 0.46,-15.44 0.47,15.47 0.47,-15.44 0.46,15.48 0.47,-15.45 0.46,15.48 0.47,-15.45 0.46,15.48 0.47,-15.45 0.46,15.48 0.47,-15.44 0.46,15.47 0.47,-15.44 0.46,15.47 0.47,-15.44 0.46,15.47 0.47,-15.44 0.46,15.48 0.47,-15.45 0.46,15.48 0.47,-15.45 0.46,15.48 0.47,-15.45 0.46,15.48 0.47,-15.44 0.46,15.47 0.47,-15.44 0.46,15.47 0.47,-15.44 0.46,15.47 0.47,-15.44 0.46,15.48 0.47,-15.45 0.46,15.48 0.47,-15.45 0.47,15.48 0.46,-15.45 0.47,15.48 0.46,-15.44 0.47,15.47 0.46,-15.44 0.47,15.47 0.46,-15.44 0.47,15.47 0.46,-15.44 0.47,15.48 0.46,-15.45 0.47,15.48 0.46,-15.45 0.47,15.48 0.46,-15.45 0.47,15.48 0.46,-15.44 0.47,15.47 0.46,-15.44 0.47,15.47 0.46,-15.44 0.47,15.47 0.46,-15.44 0.47,15.48 0.46,-15.45 0.47,15.48 0.46,-15.45 0.47,15.48 0.46,-15.45 0.47,15.48 0.46,-15.44 0.47,15.47 0.46,-15.44 0.47,15.47 0.47,-15.44 0.46,15.47 0.47,-15.44 0.46,15.48 0.47,-15.45 0.46,15.48 0.47,-15.45 0.46,15.48 0.47,-15.45 0.46,15.48 0.47,-15.44 0.46,15.47 0.47,-15.44 0.46,15.47 0.47,-15.44 0.46,15.47 0.47,-15.44 0.46,15.48 0.47,-15.45 0.46,15.48 0.47,-15.45 0.46,15.48 0.47,-15.45 0.46,15.48 0.47,-15.44 0.46,15.47 0.47,-15.44 0.46,15.47 0.47,-15.44 0.46,15.47 0.47,-15.44 0.46,15.48 0.47,-15.45 0.46,15.48 0.47,-15.45 0.47,15.48 0.46,-15.45 0.47,15.48 0.46,-15.44 0.47,15.47 0.46,-15.44 0.47,15.47 0.46,-15.44 0.47,15.47 0.46,-15.44 0.47,15.48 0.46,-15.45 0.47,15.48 0.46,-15.45 0.47,15.48 0.46,-15.45 0.47,15.48 0.46,-15.44 0.47,15.47 0.46,-15.44 0.47,15.47 0.46,-15.44 0.47,15.47 0.46,-15.44 0.47,15.48 0.46,-15.45 0.47,15.48 0.46,-15.45 0.47,15.48 0.46,-15.45 0.47,15.48 0.46,-15.44 0.47,15.47 0.47,-15.44 0.46,15.47 0.47,-15.44 0.46,15.47 0.47,-15.44 0.46,15.48 0.47,-15.45 0.46,15.48 0.47,-15.45 0.46,15.48 0.47,-15.45 0.46,15.48 0.47,-15.44 0.46,15.47 0.47,-15.44 0.46,15.47 0.47,-15.44 0.46,15.47 0.47,-15.44 0.46,15.48 0.47,-15.45 0.46,15.48 0.47,-15.45 0.46,15.48 0.47,-15.45 0.46,15.48 0.47,-15.44 0.46,15.47 0.47,-15.44 0.46,15.47 0.47,-15.44 0.46,15.47 0.47,-15.44 0.46,15.48 0.47,-15.45 0.47,15.48 0.46,-15.45 0.47,15.48 0.46,-15.45 0.47,15.48 0.46,-15.44 0.47,15.47 0.46,-15.44 0.47,15.47 0.46,-15.44 0.47,15.47 0.46,-15.44 0.47,15.48 0.46,-15.45 0.47,15.48 0.46,-15.45 0.47,15.48 0.46,-15.45 0.47,15.48 0.46,-15.44 0.47,15.47 0.46,-15.44 0.47,15.47 0.46,-15.44 0.47,15.47 0.46,-15.44 0.47,15.48 0.46,-15.45 0.47,15.48 0.46,-15.45 0.47,15.48 0.46,-15.45 0.47,15.48 0.47,-15.44 0.46,15.47 0.47,-15.44 0.46,15.47 0.47,-15.44 0.46,15.47 0.47,-15.44 0.46,15.48 0.47,-15.45 0.46,15.48 0.47,-15.45 0.46,15.48 0.47,-15.45 0.46,15.48 0.47,-15.44 0.46,15.47 0.47,-15.44 0.46,15.47 0.47,-15.44 0.46,15.47 0.47,-15.44 0.46,15.48 0.47,-15.45 0.46,15.48 0.47,-15.45 0.46,15.48 0.47,-15.45 0.46,15.48 0.47,-15.44 0.46,15.47 0.47,-15.44 0.46,15.47 0.47,-15.44 0.46,15.47 0.47,-15.44 0.47,15.48 0.46,-15.45 0.47,15.48 0.46,-15.45 0.47,15.48 0.46,-15.45 0.47,15.48 0.46,-15.44 0.47,15.47 0.46,-15.44 0.47,15.47 0.46,-15.44 0.47,15.47 0.46,-15.44 0.47,15.48 0.46,-15.45 0.47,15.48 0.46,-15.45 0.47,15.48 0.46,-15.45 0.47,15.48 0.46,-15.44 0.47,15.47 0.46,-15.44 0.47,15.47 0.46,-15.44 0.47,15.47 0.46,-15.44 0.47,15.48 0.46,-15.45 0.47,15.48 0.46,-15.45 0.47,15.48 0.46,-15.45 0.47,15.48 0.47,-15.44 0.46,15.47 0.47,-15.44 0.46,15.47 0.47,-15.44 0.46,15.47 0.47,-15.44 0.46,15.48 0.47,-15.45 0.46,15.48 0.47,-15.45 0.46,15.48 0.47,-15.45 0.46,15.48 0.47,-15.44 0.46,15.47 0.47,-15.44 0.46,15.47 0.47,-15.44 0.46,15.47 0.47,-15.44 0.46,15.48 0.47,-15.45 0.46,15.48 0.47,-15.45 0.46,15.48 0.47,-15.45 0.46,15.48 0.47,-15.44 0.46,15.47 0.47,-15.44 0.46,15.47 0.47,-15.44 0.47,15.47 0.46,-15.44 0.47,15.48 0.46,-15.45 0.47,15.48 0.46,-15.45 0.47,15.48 0.46,-15.45 0.47,15.48 0.46,-15.44 0.47,15.47 0.46,-15.44 0.47,15.47 0.46,-15.44 0.47,15.47 0.46,-15.44 0.47,15.47 0.46,-15.44 0.47,15.48 0.46,-15.45 0.47,15.48 0.46,-15.45 0.47,15.48 0.46,-15.45 0.47,15.48 0.46,-15.44 0.47,15.47 0.46,-15.44 0.47,15.47 0.46,-15.44 0.47,15.47 0.46,-15.44 0.47,15.48 0.46,-15.45 0.47,15.48 0.47,-15.45 0.46,15.48 0.47,-15.45 0.46,15.48 0.47,-15.44 0.46,15.47 0.47,-15.44 0.46,15.47 0.47,-15.44 0.46,15.47 0.47,-15.44 0.46,15.48 0.47,-15.45 0.46,15.48 0.47,-15.45 0.46,15.48 0.47,-15.45 0.46,15.48 0.47,-15.44 0.46,15.47 0.47,-15.44 0.46,15.47 0.47,-15.44 0.46,15.47 0.47,-15.44 0.46,15.48 0.47,-15.45 0.46,15.48 0.47,-15.45 0.46,15.48 0.47,-15.45 0.46,15.48 0.47,-15.44 0.47,15.47 0.46,-15.44 0.47,15.47 0.46,-15.44 0.47,15.47"
           id="path35" />
      </g>
    </g>
    <g
       id="gnuplot_plot_2">
      <title
         id="title36">f(x)</title>
      <g
         fill="none"
         color="#000000"
         stroke="currentColor"
         stroke-width="1"
         stroke-linecap="butt"
         stroke-linejoin="miter"
         id="g38">
        <g
           transform="translate(660.49,86.86)"
           stroke="none"
           fill="#000001"
           font-family="'Times New Roman'"
           font-size="18px"
           text-anchor="end"
           id="g37">
          <text
             id="text36"><tspan
               font-family="'Times New Roman'"
               id="tspan36">f(x)</tspan></text>
        </g>
      </g>
      <g
         fill="none"
         color="#000000"
         stroke="currentColor"
         stroke-width="1"
         stroke-linecap="butt"
         stroke-linejoin="miter"
         id="g39">
        <path
           stroke="#000004"
           d="m 673.09,81.01 h 63.9 M 157.5,38.78 l 0.47,29.17 0.46,20.93 0.47,7.54 0.46,1.39 0.47,1.29 0.46,1.2 0.47,1.18 0.46,1.18 0.47,1.17 0.46,1.17 0.47,1.16 0.46,1.17 0.47,1.17 0.46,1.16 0.47,1.17 0.46,1.16 0.47,1.17 0.46,1.16 0.47,1.16 0.46,1.16 0.47,1.16 0.46,1.16 0.47,1.16 0.46,1.16 0.47,1.16 0.46,1.15 0.47,1.15 0.46,1.16 0.47,1.15 0.46,1.14 0.47,1.15 0.46,1.14 0.47,1.15 0.46,1.13 0.47,1.14 0.47,1.13 0.46,1.13 0.47,1.13 0.46,1.12 0.47,1.12 0.46,1.11 0.47,1.11 0.46,1.1 0.47,1.1 0.46,1.09 0.47,1.08 0.46,1.08 0.47,1.07 0.46,1.06 0.47,1.05 0.46,1.05 0.47,1.03 0.46,1.02 0.47,1.01 0.46,1 0.47,0.99 0.46,0.97 0.47,0.96 0.46,0.95 0.47,0.93 0.46,0.91 0.47,0.89 0.46,0.88 0.47,0.86 0.46,0.84 0.47,0.82 0.46,0.8 0.47,0.77 0.47,0.76 0.46,0.73 0.47,0.71 0.46,0.68 0.47,0.66 0.46,0.64 0.47,0.62 0.46,0.59 0.47,0.56 0.46,0.55 0.47,0.52 0.46,0.49 0.47,0.47 0.46,0.45 0.47,0.43 0.46,0.41 0.47,0.38 0.46,0.37 0.47,0.34 0.46,0.33 0.47,0.31 0.46,0.29 0.47,0.28 0.46,0.26 0.47,0.24 0.46,0.23 0.47,0.22 0.46,0.2 0.47,0.19 0.46,0.18 0.47,0.17 0.46,0.16 0.47,0.16 0.46,0.14 0.47,0.13 0.47,0.13 0.46,0.12 0.47,0.11 0.46,0.1 0.47,0.11 0.46,0.09 0.47,0.09 0.46,0.09 0.47,0.08 0.46,0.08 0.47,0.07 0.46,0.07 0.47,0.07 0.46,0.06 0.47,0.06 0.46,0.06 0.47,0.06 0.46,0.06 0.47,0.05 0.46,0.05 0.47,0.05 0.46,0.05 0.47,0.05 0.46,0.04 0.47,0.05 0.46,0.04 0.47,0.04 0.46,0.04 0.47,0.05 0.46,0.04 0.47,0.03 0.46,0.04 0.47,0.04 0.47,0.04 0.46,0.04 0.47,0.03 0.46,0.04 0.47,0.03 0.46,0.04 0.47,0.03 0.46,0.04 0.47,0.03 0.46,0.04 0.47,0.03 0.46,0.04 0.47,0.03 0.46,0.03 0.47,0.04 0.46,0.03 0.47,0.03 0.46,0.03 0.47,0.04 0.46,0.03 0.47,0.03 0.46,0.03 0.47,0.04 0.46,0.03 0.47,0.03 0.46,0.03 0.47,0.04 0.46,0.03 0.47,0.03 0.46,0.03 0.47,0.03 0.46,0.04 0.47,0.03 0.46,0.03 0.47,0.03 0.47,0.03 0.46,0.03 0.47,0.04 0.46,0.03 0.47,0.03 0.46,0.03 0.47,0.03 0.46,0.03 0.47,0.03 0.46,0.04 0.47,0.03 0.46,0.03 0.47,0.03 0.46,0.03 0.47,0.03 0.46,0.04 0.47,0.03 0.46,0.03 0.47,0.03 0.46,0.03 0.47,0.03 0.46,0.03 0.47,0.04 0.46,0.03 0.47,0.03 0.46,0.03 0.47,0.03 0.46,0.03 0.47,0.03 0.46,0.04 0.47,0.03 0.46,0.03 0.47,0.03 0.46,0.03 0.47,0.03 0.47,0.03 0.46,0.04 0.47,0.03 0.46,0.03 0.47,0.03 0.46,0.03 0.47,0.03 0.46,0.03 0.47,0.04 0.46,0.03 0.47,0.03 0.46,0.03 0.47,0.03 0.46,0.03 0.47,0.03 0.46,0.04 0.47,0.03 0.46,0.03 0.47,0.03 0.46,0.03 0.47,0.03 0.46,0.03 0.47,0.04 0.46,0.03 0.47,0.03 0.46,0.03 0.47,0.03 0.46,0.03 0.47,0.03 0.46,0.04 0.47,0.03 0.46,0.03 0.47,0.03 0.47,0.03 0.46,0.03 0.47,0.03 0.46,0.04 0.47,0.03 0.46,0.03 0.47,0.03 0.46,0.03 0.47,0.03 0.46,0.03 0.47,0.04 0.46,0.03 0.47,0.03 0.46,0.03 0.47,0.03 0.46,0.03 0.47,0.03 0.46,0.03 0.47,0.04 0.46,0.03 0.47,0.03 0.46,0.03 0.47,0.03 0.46,0.03 0.47,0.03 0.46,0.04 0.47,0.03 0.46,0.03 0.47,0.03 0.46,0.03 0.47,0.03 0.46,0.03 0.47,0.04 0.46,0.03 0.47,0.03 0.47,0.03 0.46,0.03 0.47,0.03 0.46,0.03 0.47,0.04 0.46,0.03 0.47,0.03 0.46,0.03 0.47,0.03 0.46,0.03 0.47,0.03 0.46,0.04 0.47,0.03 0.46,0.03 0.47,0.03 0.46,0.03 0.47,0.03 0.46,0.03 0.47,0.04 0.46,0.03 0.47,0.03 0.46,0.03 0.47,0.03 0.46,0.03 0.47,0.03 0.46,0.04 0.47,0.03 0.46,0.03 0.47,0.03 0.46,0.03 0.47,0.03 0.46,0.03 0.47,0.04 0.47,0.03 0.46,0.03 0.47,0.03 0.46,0.03 0.47,0.03 0.46,0.03 0.47,0.04 0.46,0.03 0.47,0.03 0.46,0.03 0.47,0.03 0.46,0.03 0.47,0.03 0.46,0.03 0.47,0.04 0.46,0.03 0.47,0.03 0.46,0.03 0.47,0.03 0.46,0.03 0.47,0.03 0.46,0.04 0.47,0.03 0.46,0.03 0.47,0.03 0.46,0.03 0.47,0.03 0.46,0.03 0.47,0.04 0.46,0.03 0.47,0.03 0.46,0.03 0.47,0.03 0.46,0.03 0.47,0.03 0.47,0.04 0.46,0.03 0.47,0.03 0.46,0.03 0.47,0.03 0.46,0.03 0.47,0.03 0.46,0.04 0.47,0.03 0.46,0.03 0.47,0.03 0.46,0.03 0.47,0.03 0.46,0.03 0.47,0.04 0.46,0.03 0.47,0.03 0.46,0.03 0.47,0.03 0.46,0.03 0.47,0.03 0.46,0.04 0.47,0.03 0.46,0.03 0.47,0.03 0.46,0.03 0.47,0.03 0.46,0.03 0.47,0.04 0.46,0.03 0.47,0.03 0.46,0.03 0.47,0.03 0.46,0.03 0.47,0.03 0.47,0.03 0.46,0.04 0.47,0.03 0.46,0.03 0.47,0.03 0.46,0.03 0.47,0.03 0.46,0.03 0.47,0.04 0.46,0.03 0.47,0.03 0.46,0.03 0.47,0.03 0.46,0.03 0.47,0.03 0.46,0.04 0.47,0.03 0.46,0.03 0.47,0.03 0.46,0.03 0.47,0.03 0.46,0.03 0.47,0.04 0.46,0.03 0.47,0.03 0.46,0.03 0.47,0.03 0.46,0.03 0.47,0.03 0.46,0.04 0.47,0.03 0.46,0.03 0.47,0.03 0.47,0.03 0.46,0.03 0.47,0.03 0.46,0.04 0.47,0.03 0.46,0.03 0.47,0.03 0.46,0.03 0.47,0.03 0.46,0.03 0.47,0.04 0.46,0.03 0.47,0.03 0.46,0.03 0.47,0.03 0.46,0.03 0.47,0.03 0.46,0.03 0.47,0.04 0.46,0.03 0.47,0.03 0.46,0.03 0.47,0.03 0.46,0.03 0.47,0.03 0.46,0.04 0.47,0.03 0.46,0.03 0.47,0.03 0.46,0.03 0.47,0.03 0.46,0.03 0.47,0.04 0.46,0.03 0.47,0.03 0.47,0.03 0.46,0.03 0.47,0.03 0.46,0.03 0.47,0.04 0.46,0.03 0.47,0.03 0.46,0.03 0.47,0.03 0.46,0.03 0.47,0.03 0.46,0.04 0.47,0.03 0.46,0.03 0.47,0.03 0.46,0.03 0.47,0.03 0.46,0.03 0.47,0.04 0.46,0.03 0.47,0.03 0.46,0.03 0.47,0.03 0.46,0.03 0.47,0.03 0.46,0.04 0.47,0.03 0.46,0.03 0.47,0.03 0.46,0.03 0.47,0.03 0.46,0.03 0.47,0.03 0.47,0.04 0.46,0.03 0.47,0.03 0.46,0.03 0.47,0.03 0.46,0.03 0.47,0.03 0.46,0.04 0.47,0.03 0.46,0.03 0.47,0.03 0.46,0.03 0.47,0.03 0.46,0.03 0.47,0.04 0.46,0.03 0.47,0.03 0.46,0.03 0.47,0.03 0.46,0.03 0.47,0.03 0.46,0.04 0.47,0.03 0.46,0.03 0.47,0.03 0.46,0.03 0.47,0.03 0.46,0.03 0.47,0.04 0.46,0.03 0.47,0.03 0.46,0.03 0.47,0.03 0.46,0.03 0.47,0.03 0.47,0.04 0.46,0.03 0.47,0.03 0.46,0.03 0.47,0.03 0.46,0.03 0.47,0.03 0.46,0.03 0.47,0.04 0.46,0.03 0.47,0.03 0.46,0.03 0.47,0.03 0.46,0.03 0.47,0.03 0.46,0.04 0.47,0.03 0.46,0.03 0.47,0.03 0.46,0.03 0.47,0.03 0.46,0.03 0.47,0.04 0.46,0.03 0.47,0.03 0.46,0.03 0.47,0.03 0.46,0.03 0.47,0.03 0.46,0.04 0.47,0.03 0.46,0.03 0.47,0.03 0.46,0.03 0.47,0.03 0.47,0.03 0.46,0.04 0.47,0.03 0.46,0.03 0.47,0.03 0.46,0.03 0.47,0.03 0.46,0.03 0.47,0.04 0.46,0.03 0.47,0.03 0.46,0.03 0.47,0.03 0.46,0.03 0.47,0.03 0.46,0.03 0.47,0.04 0.46,0.03 0.47,0.03 0.46,0.03 0.47,0.03 0.46,0.03 0.47,0.03 0.46,0.04 0.47,0.03 0.46,0.03 0.47,0.03 0.46,0.03 0.47,0.03 0.46,0.03 0.47,0.04 0.46,0.03 0.47,0.03 0.47,0.03 0.46,0.03 0.47,0.03 0.46,0.03 0.47,0.04 0.46,0.03 0.47,0.03 0.46,0.03 0.47,0.03 0.46,0.03 0.47,0.03 0.46,0.04 0.47,0.03 0.46,0.03 0.47,0.03 0.46,0.03 0.47,0.03 0.46,0.03 0.47,0.03 0.46,0.04 0.47,0.03 0.46,0.03 0.47,0.03 0.46,0.03 0.47,0.03 0.46,0.03 0.47,0.04 0.46,0.03 0.47,0.03 0.46,0.03 0.47,0.03 0.46,0.03 0.47,0.03 0.46,0.04 0.47,0.03 0.47,0.03 0.46,0.03 0.47,0.03 0.46,0.03 0.47,0.03 0.46,0.04 0.47,0.03 0.46,0.03 0.47,0.03 0.46,0.03 0.47,0.03 0.46,0.03 0.47,0.04 0.46,0.03 0.47,0.03 0.46,0.03 0.47,0.03 0.46,0.03 0.47,0.03 0.46,0.03 0.47,0.04 0.46,0.03 0.47,0.03 0.46,0.03 0.47,0.03 0.46,0.03 0.47,0.03 0.46,0.04 0.47,0.03 0.46,0.03 0.47,0.03 0.46,0.03 0.47,0.03 0.47,0.03 0.46,0.04 0.47,0.03 0.46,0.03 0.47,0.03 0.46,0.03 0.47,0.03 0.46,0.03 0.47,0.04 0.46,0.03 0.47,0.03 0.46,0.03 0.47,0.03 0.46,0.03 0.47,0.03 0.46,0.04 0.47,0.03 0.46,0.03 0.47,0.03 0.46,0.03 0.47,0.03 0.46,0.03 0.47,0.03 0.46,0.04 0.47,0.03 0.46,0.03 0.47,0.03 0.46,0.03 0.47,0.03 0.46,0.03 0.47,0.04 0.46,0.03 0.47,0.03 0.46,0.03 0.47,0.03 0.47,0.03 0.46,0.03 0.47,0.04 0.46,0.03 0.47,0.03 0.46,0.03 0.47,0.03 0.46,0.03 0.47,0.03 0.46,0.04 0.47,0.03 0.46,0.03 0.47,0.03 0.46,0.03 0.47,0.03 0.46,0.03 0.47,0.03 0.46,0.04 0.47,0.03 0.46,0.03 0.47,0.03 0.46,0.03 0.47,0.03 0.46,0.03 0.47,0.04 0.46,0.03 0.47,0.03 0.46,0.03 0.47,0.03 0.46,0.03 0.47,0.03 0.46,0.04 0.47,0.03 0.46,0.03 0.47,0.03 0.47,0.03 0.46,0.03 0.47,0.03 0.46,0.04 0.47,0.03 0.46,0.03 0.47,0.03 0.46,0.03 0.47,0.03 0.46,0.03 0.47,0.03 0.46,0.04 0.47,0.03 0.46,0.03 0.47,0.03 0.46,0.03 0.47,0.03 0.46,0.03 0.47,0.04 0.46,0.03 0.47,0.03 0.46,0.03 0.47,0.03 0.46,0.03 0.47,0.03 0.46,0.04 0.47,0.03 0.46,0.03 0.47,0.03 0.46,0.03 0.47,0.03 0.46,0.03 0.47,0.04 0.47,0.03 0.46,0.03 0.47,0.03 0.46,0.03 0.47,0.03 0.46,0.03 0.47,0.03 0.46,0.04 0.47,0.03 0.46,0.03 0.47,0.03 0.46,0.03 0.47,0.03 0.46,0.03 0.47,0.04 0.46,0.03 0.47,0.03 0.46,0.03 0.47,0.03 0.46,0.03 0.47,0.03 0.46,0.04 0.47,0.03 0.46,0.03 0.47,0.03 0.46,0.03 0.47,0.03 0.46,0.03 0.47,0.04 0.46,0.03 0.47,0.03 0.46,0.03 0.47,0.03 0.46,0.03 0.47,0.03 0.47,0.03 0.46,0.04 0.47,0.03 0.46,0.03 0.47,0.03 0.46,0.03 0.47,0.03 0.46,0.03 0.47,0.04 0.46,0.03 0.47,0.03 0.46,0.03 0.47,0.03 0.46,0.03 0.47,0.03 0.46,0.04 0.47,0.03 0.46,0.03 0.47,0.03 0.46,0.03 0.47,0.03 0.46,0.03 0.47,0.03 0.46,0.04 0.47,0.03 0.46,0.03 0.47,0.03 0.46,0.03 0.47,0.03 0.46,0.03 0.47,0.04 0.46,0.03 0.47,0.03 0.46,0.03 0.47,0.03 0.47,0.03 0.46,0.03 0.47,0.04 0.46,0.03 0.47,0.03 0.46,0.03 0.47,0.03 0.46,0.03 0.47,0.03 0.46,0.04 0.47,0.03 0.46,0.03 0.47,0.03 0.46,0.03 0.47,0.03 0.46,0.03 0.47,0.03 0.46,0.04 0.47,0.03 0.46,0.03 0.47,0.03 0.46,0.03 0.47,0.03 0.46,0.03 0.47,0.04 0.46,0.03 0.47,0.03 0.46,0.03 0.47,0.03 0.46,0.03 0.47,0.03 0.46,0.04 0.47,0.03 0.47,0.03 0.46,0.03 0.47,0.03 0.46,0.03 0.47,0.03 0.46,0.03 0.47,0.04 0.46,0.03 0.47,0.03 0.46,0.03 0.47,0.03 0.46,0.03 0.47,0.03 0.46,0.04 0.47,0.03 0.46,0.03 0.47,0.03 0.46,0.03 0.47,0.03 0.46,0.03 0.47,0.04 0.46,0.03 0.47,0.03 0.46,0.03 0.47,0.03 0.46,0.03 0.47,0.03 0.46,0.03 0.47,0.04 0.46,0.03 0.47,0.03 0.46,0.03 0.47,0.03 0.46,0.03 0.47,0.03 0.47,0.04 0.46,0.03 0.47,0.03 0.46,0.03 0.47,0.03 0.46,0.03 0.47,0.03 0.46,0.04 0.47,0.03 0.46,0.03 0.47,0.03 0.46,0.03 0.47,0.03 0.46,0.03 0.47,0.03 0.46,0.04 0.47,0.03 0.46,0.03 0.47,0.03 0.46,0.03 0.47,0.03 0.46,0.03 0.47,0.04 0.46,0.03 0.47,0.03 0.46,0.03 0.47,0.03 0.46,0.03 0.47,0.03 0.46,0.03 0.47,0.04 0.46,0.03 0.47,0.03 0.47,0.03 0.46,0.03 0.47,0.03 0.46,0.03 0.47,0.04 0.46,0.03 0.47,0.03 0.46,0.03 0.47,0.03 0.46,0.03 0.47,0.03 0.46,0.04 0.47,0.03 0.46,0.03 0.47,0.03 0.46,0.03 0.47,0.03 0.46,0.03 0.47,0.03 0.46,0.04 0.47,0.03 0.46,0.03 0.47,0.03 0.46,0.03 0.47,0.03 0.46,0.03 0.47,0.04 0.46,0.03 0.47,0.03 0.46,0.03 0.47,0.03 0.46,0.03 0.47,0.03 0.46,0.04 0.47,0.03 0.47,0.03 0.46,0.03 0.47,0.03 0.46,0.03 0.47,0.03 0.46,0.03 0.47,0.04 0.46,0.03 0.47,0.03 0.46,0.03 0.47,0.03 0.46,0.03 0.47,0.03 0.46,0.04 0.47,0.03 0.46,0.03 0.47,0.03 0.46,0.03 0.47,0.03 0.46,0.03 0.47,0.03 0.46,0.04 0.47,0.03 0.46,0.03 0.47,0.03 0.46,0.03 0.47,0.03 0.46,0.03 0.47,0.04 0.46,0.03 0.47,0.03 0.46,0.03 0.47,0.03 0.46,0.03 0.47,0.03 0.47,0.03 0.46,0.04 0.47,0.03 0.46,0.03 0.47,0.03 0.46,0.03 0.47,0.03 0.46,0.03 0.47,0.04 0.46,0.03 0.47,0.03 0.46,0.03 0.47,0.03 0.46,0.03 0.47,0.03 0.46,0.04 0.47,0.03 0.46,0.03 0.47,0.03 0.46,0.03 0.47,0.03 0.46,0.03 0.47,0.03 0.46,0.04 0.47,0.03 0.46,0.03 0.47,0.03 0.46,0.03 0.47,0.03 0.46,0.03 0.47,0.04 0.46,0.03 0.47,0.03 0.47,0.03 0.46,0.03 0.47,0.03 0.46,0.03 0.47,0.03 0.46,0.04 0.47,0.03 0.46,0.03 0.47,0.03 0.46,0.03 0.47,0.03 0.46,0.03 0.47,0.04 0.46,0.03 0.47,0.03 0.46,0.03 0.47,0.03 0.46,0.03 0.47,0.03 0.46,0.03 0.47,0.04 0.46,0.03 0.47,0.03 0.46,0.03 0.47,0.03 0.46,0.03 0.47,0.03 0.46,0.04 0.47,0.03 0.46,0.03 0.47,0.03 0.46,0.03 0.47,0.03 0.46,0.03 0.47,0.03 0.47,0.04 0.46,0.03 0.47,0.03 0.46,0.03 0.47,0.03 0.46,0.03 0.47,0.03 0.46,0.04 0.47,0.03 0.46,0.03 0.47,0.03 0.46,0.03 0.47,0.03 0.46,0.03 0.47,0.03 0.46,0.04 0.47,0.03 0.46,0.03 0.47,0.03 0.46,0.03 0.47,0.03 0.46,0.03 0.47,0.04 0.46,0.03 0.47,0.03 0.46,0.03 0.47,0.03 0.46,0.03 0.47,0.03 0.46,0.03 0.47,0.04 0.46,0.03 0.47,0.03 0.47,0.03 0.46,0.03 0.47,0.03 0.46,0.03 0.47,0.04 0.46,0.03 0.47,0.03 0.46,0.03 0.47,0.03 0.46,0.03 0.47,0.03 0.46,0.03 0.47,0.04 0.46,0.03 0.47,0.03 0.46,0.03 0.47,0.03 0.46,0.03 0.47,0.03 0.46,0.03 0.47,0.04 0.46,0.03 0.47,0.03 0.46,0.03 0.47,0.03 0.46,0.03 0.47,0.03 0.46,0.04 0.47,0.03 0.46,0.03 0.47,0.03 0.46,0.03 0.47,0.03 0.46,0.03 0.47,0.03 0.47,0.04 0.46,0.03 0.47,0.03 0.46,0.03 0.47,0.03 0.46,0.03 0.47,0.03 0.46,0.04 0.47,0.03 0.46,0.03 0.47,0.03 0.46,0.03 0.47,0.03 0.46,0.03 0.47,0.03 0.46,0.04 0.47,0.03 0.46,0.03 0.47,0.03 0.46,0.03 0.47,0.03 0.46,0.03 0.47,0.03 0.46,0.04 0.47,0.03 0.46,0.03 0.47,0.03 0.46,0.03 0.47,0.03 0.46,0.03 0.47,0.04 0.46,0.03 0.47,0.03 0.46,0.03 0.47,0.03 0.47,0.03 0.46,0.03 0.47,0.03 0.46,0.04 0.47,0.03 0.46,0.03 0.47,0.03 0.46,0.03 0.47,0.03 0.46,0.03 0.47,0.03 0.46,0.04 0.47,0.03 0.46,0.03 0.47,0.03 0.46,0.03 0.47,0.03 0.46,0.03 0.47,0.04 0.46,0.03 0.47,0.03 0.46,0.03 0.47,0.03 0.46,0.03 0.47,0.03 0.46,0.03 0.47,0.04 0.46,0.03 0.47,0.03 0.46,0.03 0.47,0.03 0.46,0.03 0.47,0.03 0.47,0.03 0.46,0.04 0.47,0.03 0.46,0.03 0.47,0.03 0.46,0.03 0.47,0.03 0.46,0.03 0.47,0.04 0.46,0.03 0.47,0.03 0.46,0.03 0.47,0.03 0.46,0.03 0.47,0.03 0.46,0.03 0.47,0.04 0.46,0.03 0.47,0.03 0.46,0.03 0.47,0.03 0.46,0.03 0.47,0.03 0.46,0.03 0.47,0.04 0.46,0.03 0.47,0.03 0.46,0.03 0.47,0.03 0.46,0.03 0.47,0.03 0.46,0.04 0.47,0.03 0.46,0.03 0.47,0.03 0.47,0.03 0.46,0.03 0.47,0.03 0.46,0.03 0.47,0.04 0.46,0.03 0.47,0.03 0.46,0.03 0.47,0.03 0.46,0.03 0.47,0.03 0.46,0.03 0.47,0.04 0.46,0.03 0.47,0.03 0.46,0.03 0.47,0.03 0.46,0.03 0.47,0.03 0.46,0.03 0.47,0.04 0.46,0.03 0.47,0.03 0.46,0.03 0.47,0.03 0.46,0.03 0.47,0.03 0.46,0.03 0.47,0.04 0.46,0.03 0.47,0.03 0.46,0.03 0.47,0.03 0.47,0.03 0.46,0.03 0.47,0.04 0.46,0.03 0.47,0.03"
           id="path38" />
      </g>
    </g>
    <g
       fill="none"
       color="#ffffff"
       stroke="#000004"
       stroke-width="2"
       stroke-linecap="butt"
       stroke-linejoin="miter"
       id="g40" />
    <g
       fill="none"
       color="#000000"
       stroke="currentColor"
       stroke-width="2"
       stroke-linecap="butt"
       stroke-linejoin="miter"
       id="g41" />
    <g
       fill="none"
       color="#000000"
       stroke="#000000"
       stroke-width="1"
       stroke-linecap="butt"
       stroke-linejoin="miter"
       id="g42" />
    <g
       fill="none"
       color="#000000"
       stroke="currentColor"
       stroke-width="1"
       stroke-linecap="butt"
       stroke-linejoin="miter"
       id="g43">
      <path
         stroke="#000001"
         d="M 157.5,27.01 V 246 H 762.19 V 27.01 Z"
         id="path42" />
    </g>
    <g
       fill="none"
       color="#000000"
       stroke="currentColor"
       stroke-width="1"
       stroke-linecap="butt"
       stroke-linejoin="miter"
       id="g44" />
  </g>
</svg>
